<mxfile host="app.diagrams.net" modified="2020-12-30T11:53:53.850Z" agent="5.0 (Windows NT 10.0; Win64; x64) AppleWebKit/537.36 (KHTML, like Gecko) Chrome/87.0.4280.88 Safari/537.36 OPR/73.0.3856.284 (Edition Campaign 34)" etag="USqaSA2xQIunDp5tSIfl" version="14.1.3" type="github">
  <diagram id="M1zv-RK6lK0hquUm6WDN" name="Page-1">
    <mxGraphModel dx="1183" dy="704" grid="1" gridSize="10" guides="1" tooltips="1" connect="1" arrows="1" fold="1" page="1" pageScale="1" pageWidth="5027" pageHeight="5069" math="0" shadow="0">
      <root>
        <mxCell id="0" />
        <mxCell id="1" parent="0" />
        <mxCell id="iCxR82LuGbeLRVv5gzeX-308" style="edgeStyle=orthogonalEdgeStyle;rounded=0;orthogonalLoop=1;jettySize=auto;html=1;exitX=0.75;exitY=1;exitDx=0;exitDy=0;entryX=0.25;entryY=0;entryDx=0;entryDy=0;startArrow=ERmandOne;startFill=0;endArrow=ERoneToMany;endFill=0;fontSize=13;" parent="1" source="iCxR82LuGbeLRVv5gzeX-13" target="iCxR82LuGbeLRVv5gzeX-93" edge="1">
          <mxGeometry relative="1" as="geometry" />
        </mxCell>
        <mxCell id="iCxR82LuGbeLRVv5gzeX-313" value="VARDIR" style="edgeStyle=orthogonalEdgeStyle;rounded=0;orthogonalLoop=1;jettySize=auto;html=1;exitX=0.25;exitY=0;exitDx=0;exitDy=0;entryX=1;entryY=0.5;entryDx=0;entryDy=0;startArrow=ERmandOne;startFill=0;endArrow=ERoneToMany;endFill=0;fontSize=13;" parent="1" source="iCxR82LuGbeLRVv5gzeX-13" target="iCxR82LuGbeLRVv5gzeX-37" edge="1">
          <mxGeometry relative="1" as="geometry" />
        </mxCell>
        <mxCell id="iCxR82LuGbeLRVv5gzeX-315" style="edgeStyle=orthogonalEdgeStyle;rounded=0;orthogonalLoop=1;jettySize=auto;html=1;exitX=0.25;exitY=1;exitDx=0;exitDy=0;startArrow=ERoneToMany;startFill=0;endArrow=ERmandOne;endFill=0;fontSize=13;" parent="1" source="iCxR82LuGbeLRVv5gzeX-13" target="iCxR82LuGbeLRVv5gzeX-210" edge="1">
          <mxGeometry relative="1" as="geometry" />
        </mxCell>
        <mxCell id="iCxR82LuGbeLRVv5gzeX-330" style="edgeStyle=orthogonalEdgeStyle;rounded=0;orthogonalLoop=1;jettySize=auto;html=1;exitX=0.5;exitY=0;exitDx=0;exitDy=0;startArrow=ERzeroToOne;startFill=1;endArrow=ERzeroToOne;endFill=1;fontSize=13;" parent="1" source="iCxR82LuGbeLRVv5gzeX-13" target="iCxR82LuGbeLRVv5gzeX-240" edge="1">
          <mxGeometry relative="1" as="geometry" />
        </mxCell>
        <mxCell id="5ZjnstfDlBr8CtF7rMbR-15" style="edgeStyle=orthogonalEdgeStyle;rounded=0;orthogonalLoop=1;jettySize=auto;html=1;exitX=0.5;exitY=1;exitDx=0;exitDy=0;entryX=1;entryY=0.5;entryDx=0;entryDy=0;startArrow=ERmandOne;startFill=0;endArrow=ERmandOne;endFill=0;" edge="1" parent="1" source="iCxR82LuGbeLRVv5gzeX-13" target="5ZjnstfDlBr8CtF7rMbR-6">
          <mxGeometry relative="1" as="geometry" />
        </mxCell>
        <mxCell id="iCxR82LuGbeLRVv5gzeX-13" value="HASTA" style="shape=table;startSize=30;container=1;collapsible=1;childLayout=tableLayout;fixedRows=1;rowLines=0;fontStyle=1;align=center;resizeLast=1;" parent="1" vertex="1">
          <mxGeometry x="980" y="810" width="180" height="245" as="geometry" />
        </mxCell>
        <mxCell id="iCxR82LuGbeLRVv5gzeX-14" value="" style="shape=partialRectangle;collapsible=0;dropTarget=0;pointerEvents=0;fillColor=none;top=0;left=0;bottom=1;right=0;points=[[0,0.5],[1,0.5]];portConstraint=eastwest;" parent="iCxR82LuGbeLRVv5gzeX-13" vertex="1">
          <mxGeometry y="30" width="180" height="30" as="geometry" />
        </mxCell>
        <mxCell id="iCxR82LuGbeLRVv5gzeX-15" value="PKFK" style="shape=partialRectangle;connectable=0;fillColor=none;top=0;left=0;bottom=0;right=0;fontStyle=1;overflow=hidden;" parent="iCxR82LuGbeLRVv5gzeX-14" vertex="1">
          <mxGeometry width="40" height="30" as="geometry" />
        </mxCell>
        <mxCell id="iCxR82LuGbeLRVv5gzeX-16" value="KişiNo" style="shape=partialRectangle;connectable=0;fillColor=none;top=0;left=0;bottom=0;right=0;align=left;spacingLeft=6;fontStyle=5;overflow=hidden;" parent="iCxR82LuGbeLRVv5gzeX-14" vertex="1">
          <mxGeometry x="40" width="140" height="30" as="geometry" />
        </mxCell>
        <mxCell id="iCxR82LuGbeLRVv5gzeX-17" value="" style="shape=partialRectangle;collapsible=0;dropTarget=0;pointerEvents=0;fillColor=none;top=0;left=0;bottom=0;right=0;points=[[0,0.5],[1,0.5]];portConstraint=eastwest;" parent="iCxR82LuGbeLRVv5gzeX-13" vertex="1">
          <mxGeometry y="60" width="180" height="30" as="geometry" />
        </mxCell>
        <mxCell id="iCxR82LuGbeLRVv5gzeX-18" value="" style="shape=partialRectangle;connectable=0;fillColor=none;top=0;left=0;bottom=0;right=0;editable=1;overflow=hidden;" parent="iCxR82LuGbeLRVv5gzeX-17" vertex="1">
          <mxGeometry width="40" height="30" as="geometry" />
        </mxCell>
        <mxCell id="iCxR82LuGbeLRVv5gzeX-19" value="Giriş" style="shape=partialRectangle;connectable=0;fillColor=none;top=0;left=0;bottom=0;right=0;align=left;spacingLeft=6;overflow=hidden;" parent="iCxR82LuGbeLRVv5gzeX-17" vertex="1">
          <mxGeometry x="40" width="140" height="30" as="geometry" />
        </mxCell>
        <mxCell id="iCxR82LuGbeLRVv5gzeX-20" value="" style="shape=partialRectangle;collapsible=0;dropTarget=0;pointerEvents=0;fillColor=none;top=0;left=0;bottom=0;right=0;points=[[0,0.5],[1,0.5]];portConstraint=eastwest;" parent="iCxR82LuGbeLRVv5gzeX-13" vertex="1">
          <mxGeometry y="90" width="180" height="30" as="geometry" />
        </mxCell>
        <mxCell id="iCxR82LuGbeLRVv5gzeX-21" value="" style="shape=partialRectangle;connectable=0;fillColor=none;top=0;left=0;bottom=0;right=0;editable=1;overflow=hidden;" parent="iCxR82LuGbeLRVv5gzeX-20" vertex="1">
          <mxGeometry width="40" height="30" as="geometry" />
        </mxCell>
        <mxCell id="iCxR82LuGbeLRVv5gzeX-22" value="Çıkış" style="shape=partialRectangle;connectable=0;fillColor=none;top=0;left=0;bottom=0;right=0;align=left;spacingLeft=6;overflow=hidden;" parent="iCxR82LuGbeLRVv5gzeX-20" vertex="1">
          <mxGeometry x="40" width="140" height="30" as="geometry" />
        </mxCell>
        <mxCell id="iCxR82LuGbeLRVv5gzeX-23" value="" style="shape=partialRectangle;collapsible=0;dropTarget=0;pointerEvents=0;fillColor=none;top=0;left=0;bottom=0;right=0;points=[[0,0.5],[1,0.5]];portConstraint=eastwest;" parent="iCxR82LuGbeLRVv5gzeX-13" vertex="1">
          <mxGeometry y="120" width="180" height="30" as="geometry" />
        </mxCell>
        <mxCell id="iCxR82LuGbeLRVv5gzeX-24" value="" style="shape=partialRectangle;connectable=0;fillColor=none;top=0;left=0;bottom=0;right=0;editable=1;overflow=hidden;" parent="iCxR82LuGbeLRVv5gzeX-23" vertex="1">
          <mxGeometry width="40" height="30" as="geometry" />
        </mxCell>
        <mxCell id="iCxR82LuGbeLRVv5gzeX-25" value="Yas" style="shape=partialRectangle;connectable=0;fillColor=none;top=0;left=0;bottom=0;right=0;align=left;spacingLeft=6;overflow=hidden;" parent="iCxR82LuGbeLRVv5gzeX-23" vertex="1">
          <mxGeometry x="40" width="140" height="30" as="geometry" />
        </mxCell>
        <mxCell id="iCxR82LuGbeLRVv5gzeX-27" value="SağlıkNo" style="shape=partialRectangle;connectable=0;fillColor=none;top=0;left=0;bottom=0;right=0;align=left;spacingLeft=6;overflow=hidden;spacing=4;fontSize=13;" parent="1" vertex="1">
          <mxGeometry x="1010" y="995" width="160" height="30" as="geometry" />
        </mxCell>
        <mxCell id="iCxR82LuGbeLRVv5gzeX-29" value="FK" style="text;html=1;align=center;verticalAlign=middle;resizable=0;points=[];autosize=1;" parent="1" vertex="1">
          <mxGeometry x="980" y="1000" width="30" height="20" as="geometry" />
        </mxCell>
        <mxCell id="iCxR82LuGbeLRVv5gzeX-30" value="MUAYENE-GEÇMİŞİ" style="shape=table;startSize=30;container=1;collapsible=1;childLayout=tableLayout;fixedRows=1;rowLines=0;fontStyle=1;align=center;resizeLast=1;" parent="1" vertex="1">
          <mxGeometry x="690" y="560" width="180" height="130" as="geometry" />
        </mxCell>
        <mxCell id="iCxR82LuGbeLRVv5gzeX-31" value="" style="shape=partialRectangle;collapsible=0;dropTarget=0;pointerEvents=0;fillColor=none;top=0;left=0;bottom=1;right=0;points=[[0,0.5],[1,0.5]];portConstraint=eastwest;" parent="iCxR82LuGbeLRVv5gzeX-30" vertex="1">
          <mxGeometry y="30" width="180" height="30" as="geometry" />
        </mxCell>
        <mxCell id="iCxR82LuGbeLRVv5gzeX-32" value="PK" style="shape=partialRectangle;connectable=0;fillColor=none;top=0;left=0;bottom=0;right=0;fontStyle=1;overflow=hidden;" parent="iCxR82LuGbeLRVv5gzeX-31" vertex="1">
          <mxGeometry width="30" height="30" as="geometry" />
        </mxCell>
        <mxCell id="iCxR82LuGbeLRVv5gzeX-33" value="No" style="shape=partialRectangle;connectable=0;fillColor=none;top=0;left=0;bottom=0;right=0;align=left;spacingLeft=6;fontStyle=5;overflow=hidden;" parent="iCxR82LuGbeLRVv5gzeX-31" vertex="1">
          <mxGeometry x="30" width="150" height="30" as="geometry" />
        </mxCell>
        <mxCell id="iCxR82LuGbeLRVv5gzeX-34" value="" style="shape=partialRectangle;collapsible=0;dropTarget=0;pointerEvents=0;fillColor=none;top=0;left=0;bottom=0;right=0;points=[[0,0.5],[1,0.5]];portConstraint=eastwest;" parent="iCxR82LuGbeLRVv5gzeX-30" vertex="1">
          <mxGeometry y="60" width="180" height="30" as="geometry" />
        </mxCell>
        <mxCell id="iCxR82LuGbeLRVv5gzeX-35" value="FK" style="shape=partialRectangle;connectable=0;fillColor=none;top=0;left=0;bottom=0;right=0;editable=1;overflow=hidden;" parent="iCxR82LuGbeLRVv5gzeX-34" vertex="1">
          <mxGeometry width="30" height="30" as="geometry" />
        </mxCell>
        <mxCell id="iCxR82LuGbeLRVv5gzeX-36" value="HastaNo" style="shape=partialRectangle;connectable=0;fillColor=none;top=0;left=0;bottom=0;right=0;align=left;spacingLeft=6;overflow=hidden;" parent="iCxR82LuGbeLRVv5gzeX-34" vertex="1">
          <mxGeometry x="30" width="150" height="30" as="geometry" />
        </mxCell>
        <mxCell id="iCxR82LuGbeLRVv5gzeX-37" value="" style="shape=partialRectangle;collapsible=0;dropTarget=0;pointerEvents=0;fillColor=none;top=0;left=0;bottom=0;right=0;points=[[0,0.5],[1,0.5]];portConstraint=eastwest;" parent="iCxR82LuGbeLRVv5gzeX-30" vertex="1">
          <mxGeometry y="90" width="180" height="30" as="geometry" />
        </mxCell>
        <mxCell id="iCxR82LuGbeLRVv5gzeX-38" value="FK" style="shape=partialRectangle;connectable=0;fillColor=none;top=0;left=0;bottom=0;right=0;editable=1;overflow=hidden;" parent="iCxR82LuGbeLRVv5gzeX-37" vertex="1">
          <mxGeometry width="30" height="30" as="geometry" />
        </mxCell>
        <mxCell id="iCxR82LuGbeLRVv5gzeX-39" value="DoktorNo" style="shape=partialRectangle;connectable=0;fillColor=none;top=0;left=0;bottom=0;right=0;align=left;spacingLeft=6;overflow=hidden;" parent="iCxR82LuGbeLRVv5gzeX-37" vertex="1">
          <mxGeometry x="30" width="150" height="30" as="geometry" />
        </mxCell>
        <mxCell id="iCxR82LuGbeLRVv5gzeX-334" style="edgeStyle=orthogonalEdgeStyle;rounded=0;orthogonalLoop=1;jettySize=auto;html=1;exitX=0.75;exitY=0;exitDx=0;exitDy=0;entryX=-0.005;entryY=0.586;entryDx=0;entryDy=0;entryPerimeter=0;startArrow=ERmandOne;startFill=0;endArrow=ERoneToMany;endFill=0;fontSize=13;" parent="1" source="iCxR82LuGbeLRVv5gzeX-45" target="iCxR82LuGbeLRVv5gzeX-90" edge="1">
          <mxGeometry relative="1" as="geometry" />
        </mxCell>
        <mxCell id="iCxR82LuGbeLRVv5gzeX-335" style="edgeStyle=orthogonalEdgeStyle;rounded=0;orthogonalLoop=1;jettySize=auto;html=1;exitX=0.75;exitY=1;exitDx=0;exitDy=0;entryX=0.5;entryY=1;entryDx=0;entryDy=0;startArrow=ERoneToMany;startFill=0;endArrow=ERmandOne;endFill=0;fontSize=13;" parent="1" source="iCxR82LuGbeLRVv5gzeX-45" target="iCxR82LuGbeLRVv5gzeX-155" edge="1">
          <mxGeometry relative="1" as="geometry" />
        </mxCell>
        <mxCell id="iCxR82LuGbeLRVv5gzeX-45" value="ADRES" style="shape=table;startSize=30;container=1;collapsible=1;childLayout=tableLayout;fixedRows=1;rowLines=0;fontStyle=1;align=center;resizeLast=1;" parent="1" vertex="1">
          <mxGeometry x="810" y="1700" width="180" height="180" as="geometry" />
        </mxCell>
        <mxCell id="iCxR82LuGbeLRVv5gzeX-46" value="" style="shape=partialRectangle;collapsible=0;dropTarget=0;pointerEvents=0;fillColor=none;top=0;left=0;bottom=1;right=0;points=[[0,0.5],[1,0.5]];portConstraint=eastwest;" parent="iCxR82LuGbeLRVv5gzeX-45" vertex="1">
          <mxGeometry y="30" width="180" height="30" as="geometry" />
        </mxCell>
        <mxCell id="iCxR82LuGbeLRVv5gzeX-47" value="PK" style="shape=partialRectangle;connectable=0;fillColor=none;top=0;left=0;bottom=0;right=0;fontStyle=1;overflow=hidden;" parent="iCxR82LuGbeLRVv5gzeX-46" vertex="1">
          <mxGeometry width="30" height="30" as="geometry" />
        </mxCell>
        <mxCell id="iCxR82LuGbeLRVv5gzeX-48" value="No " style="shape=partialRectangle;connectable=0;fillColor=none;top=0;left=0;bottom=0;right=0;align=left;spacingLeft=6;fontStyle=5;overflow=hidden;" parent="iCxR82LuGbeLRVv5gzeX-46" vertex="1">
          <mxGeometry x="30" width="150" height="30" as="geometry" />
        </mxCell>
        <mxCell id="iCxR82LuGbeLRVv5gzeX-49" value="" style="shape=partialRectangle;collapsible=0;dropTarget=0;pointerEvents=0;fillColor=none;top=0;left=0;bottom=0;right=0;points=[[0,0.5],[1,0.5]];portConstraint=eastwest;" parent="iCxR82LuGbeLRVv5gzeX-45" vertex="1">
          <mxGeometry y="60" width="180" height="30" as="geometry" />
        </mxCell>
        <mxCell id="iCxR82LuGbeLRVv5gzeX-50" value="" style="shape=partialRectangle;connectable=0;fillColor=none;top=0;left=0;bottom=0;right=0;editable=1;overflow=hidden;" parent="iCxR82LuGbeLRVv5gzeX-49" vertex="1">
          <mxGeometry width="30" height="30" as="geometry" />
        </mxCell>
        <mxCell id="iCxR82LuGbeLRVv5gzeX-51" value="Mahalle" style="shape=partialRectangle;connectable=0;fillColor=none;top=0;left=0;bottom=0;right=0;align=left;spacingLeft=6;overflow=hidden;" parent="iCxR82LuGbeLRVv5gzeX-49" vertex="1">
          <mxGeometry x="30" width="150" height="30" as="geometry" />
        </mxCell>
        <mxCell id="iCxR82LuGbeLRVv5gzeX-52" value="" style="shape=partialRectangle;collapsible=0;dropTarget=0;pointerEvents=0;fillColor=none;top=0;left=0;bottom=0;right=0;points=[[0,0.5],[1,0.5]];portConstraint=eastwest;" parent="iCxR82LuGbeLRVv5gzeX-45" vertex="1">
          <mxGeometry y="90" width="180" height="30" as="geometry" />
        </mxCell>
        <mxCell id="iCxR82LuGbeLRVv5gzeX-53" value="" style="shape=partialRectangle;connectable=0;fillColor=none;top=0;left=0;bottom=0;right=0;editable=1;overflow=hidden;" parent="iCxR82LuGbeLRVv5gzeX-52" vertex="1">
          <mxGeometry width="30" height="30" as="geometry" />
        </mxCell>
        <mxCell id="iCxR82LuGbeLRVv5gzeX-54" value="SokakNo" style="shape=partialRectangle;connectable=0;fillColor=none;top=0;left=0;bottom=0;right=0;align=left;spacingLeft=6;overflow=hidden;" parent="iCxR82LuGbeLRVv5gzeX-52" vertex="1">
          <mxGeometry x="30" width="150" height="30" as="geometry" />
        </mxCell>
        <mxCell id="iCxR82LuGbeLRVv5gzeX-55" value="" style="shape=partialRectangle;collapsible=0;dropTarget=0;pointerEvents=0;fillColor=none;top=0;left=0;bottom=0;right=0;points=[[0,0.5],[1,0.5]];portConstraint=eastwest;" parent="iCxR82LuGbeLRVv5gzeX-45" vertex="1">
          <mxGeometry y="120" width="180" height="30" as="geometry" />
        </mxCell>
        <mxCell id="iCxR82LuGbeLRVv5gzeX-56" value="" style="shape=partialRectangle;connectable=0;fillColor=none;top=0;left=0;bottom=0;right=0;editable=1;overflow=hidden;" parent="iCxR82LuGbeLRVv5gzeX-55" vertex="1">
          <mxGeometry width="30" height="30" as="geometry" />
        </mxCell>
        <mxCell id="iCxR82LuGbeLRVv5gzeX-57" value="ApartmanNo" style="shape=partialRectangle;connectable=0;fillColor=none;top=0;left=0;bottom=0;right=0;align=left;spacingLeft=6;overflow=hidden;" parent="iCxR82LuGbeLRVv5gzeX-55" vertex="1">
          <mxGeometry x="30" width="150" height="30" as="geometry" />
        </mxCell>
        <mxCell id="iCxR82LuGbeLRVv5gzeX-58" value="FK" style="text;html=1;align=center;verticalAlign=middle;resizable=0;points=[];autosize=1;" parent="1" vertex="1">
          <mxGeometry x="810" y="1850" width="30" height="20" as="geometry" />
        </mxCell>
        <mxCell id="iCxR82LuGbeLRVv5gzeX-59" value="ServisNo" style="text;html=1;align=center;verticalAlign=middle;resizable=0;points=[];autosize=1;" parent="1" vertex="1">
          <mxGeometry x="853" y="1850" width="60" height="20" as="geometry" />
        </mxCell>
        <mxCell id="iCxR82LuGbeLRVv5gzeX-61" value="RANDEVU" style="shape=table;startSize=30;container=1;collapsible=1;childLayout=tableLayout;fixedRows=1;rowLines=0;fontStyle=1;align=center;resizeLast=1;" parent="1" vertex="1">
          <mxGeometry x="1130" y="1680" width="180" height="130" as="geometry" />
        </mxCell>
        <mxCell id="iCxR82LuGbeLRVv5gzeX-62" value="" style="shape=partialRectangle;collapsible=0;dropTarget=0;pointerEvents=0;fillColor=none;top=0;left=0;bottom=1;right=0;points=[[0,0.5],[1,0.5]];portConstraint=eastwest;" parent="iCxR82LuGbeLRVv5gzeX-61" vertex="1">
          <mxGeometry y="30" width="180" height="30" as="geometry" />
        </mxCell>
        <mxCell id="iCxR82LuGbeLRVv5gzeX-63" value="PK" style="shape=partialRectangle;connectable=0;fillColor=none;top=0;left=0;bottom=0;right=0;fontStyle=1;overflow=hidden;" parent="iCxR82LuGbeLRVv5gzeX-62" vertex="1">
          <mxGeometry width="30" height="30" as="geometry" />
        </mxCell>
        <mxCell id="iCxR82LuGbeLRVv5gzeX-64" value="No" style="shape=partialRectangle;connectable=0;fillColor=none;top=0;left=0;bottom=0;right=0;align=left;spacingLeft=6;fontStyle=5;overflow=hidden;" parent="iCxR82LuGbeLRVv5gzeX-62" vertex="1">
          <mxGeometry x="30" width="150" height="30" as="geometry" />
        </mxCell>
        <mxCell id="iCxR82LuGbeLRVv5gzeX-65" value="" style="shape=partialRectangle;collapsible=0;dropTarget=0;pointerEvents=0;fillColor=none;top=0;left=0;bottom=0;right=0;points=[[0,0.5],[1,0.5]];portConstraint=eastwest;" parent="iCxR82LuGbeLRVv5gzeX-61" vertex="1">
          <mxGeometry y="60" width="180" height="30" as="geometry" />
        </mxCell>
        <mxCell id="iCxR82LuGbeLRVv5gzeX-66" value="FK" style="shape=partialRectangle;connectable=0;fillColor=none;top=0;left=0;bottom=0;right=0;editable=1;overflow=hidden;" parent="iCxR82LuGbeLRVv5gzeX-65" vertex="1">
          <mxGeometry width="30" height="30" as="geometry" />
        </mxCell>
        <mxCell id="iCxR82LuGbeLRVv5gzeX-67" value="HastaNo" style="shape=partialRectangle;connectable=0;fillColor=none;top=0;left=0;bottom=0;right=0;align=left;spacingLeft=6;overflow=hidden;" parent="iCxR82LuGbeLRVv5gzeX-65" vertex="1">
          <mxGeometry x="30" width="150" height="30" as="geometry" />
        </mxCell>
        <mxCell id="iCxR82LuGbeLRVv5gzeX-68" value="" style="shape=partialRectangle;collapsible=0;dropTarget=0;pointerEvents=0;fillColor=none;top=0;left=0;bottom=0;right=0;points=[[0,0.5],[1,0.5]];portConstraint=eastwest;" parent="iCxR82LuGbeLRVv5gzeX-61" vertex="1">
          <mxGeometry y="90" width="180" height="30" as="geometry" />
        </mxCell>
        <mxCell id="iCxR82LuGbeLRVv5gzeX-69" value="FK" style="shape=partialRectangle;connectable=0;fillColor=none;top=0;left=0;bottom=0;right=0;editable=1;overflow=hidden;" parent="iCxR82LuGbeLRVv5gzeX-68" vertex="1">
          <mxGeometry width="30" height="30" as="geometry" />
        </mxCell>
        <mxCell id="iCxR82LuGbeLRVv5gzeX-70" value="TakvimNo" style="shape=partialRectangle;connectable=0;fillColor=none;top=0;left=0;bottom=0;right=0;align=left;spacingLeft=6;overflow=hidden;" parent="iCxR82LuGbeLRVv5gzeX-68" vertex="1">
          <mxGeometry x="30" width="150" height="30" as="geometry" />
        </mxCell>
        <mxCell id="iCxR82LuGbeLRVv5gzeX-76" value="SAĞLIK-BİLGİLERİ" style="shape=table;startSize=30;container=1;collapsible=1;childLayout=tableLayout;fixedRows=1;rowLines=0;fontStyle=1;align=center;resizeLast=1;" parent="1" vertex="1">
          <mxGeometry x="740" y="1190" width="180" height="160" as="geometry" />
        </mxCell>
        <mxCell id="iCxR82LuGbeLRVv5gzeX-77" value="" style="shape=partialRectangle;collapsible=0;dropTarget=0;pointerEvents=0;fillColor=none;top=0;left=0;bottom=1;right=0;points=[[0,0.5],[1,0.5]];portConstraint=eastwest;" parent="iCxR82LuGbeLRVv5gzeX-76" vertex="1">
          <mxGeometry y="30" width="180" height="30" as="geometry" />
        </mxCell>
        <mxCell id="iCxR82LuGbeLRVv5gzeX-78" value="PK" style="shape=partialRectangle;connectable=0;fillColor=none;top=0;left=0;bottom=0;right=0;fontStyle=1;overflow=hidden;" parent="iCxR82LuGbeLRVv5gzeX-77" vertex="1">
          <mxGeometry width="30" height="30" as="geometry" />
        </mxCell>
        <mxCell id="iCxR82LuGbeLRVv5gzeX-79" value="No" style="shape=partialRectangle;connectable=0;fillColor=none;top=0;left=0;bottom=0;right=0;align=left;spacingLeft=6;fontStyle=5;overflow=hidden;" parent="iCxR82LuGbeLRVv5gzeX-77" vertex="1">
          <mxGeometry x="30" width="150" height="30" as="geometry" />
        </mxCell>
        <mxCell id="iCxR82LuGbeLRVv5gzeX-80" value="" style="shape=partialRectangle;collapsible=0;dropTarget=0;pointerEvents=0;fillColor=none;top=0;left=0;bottom=0;right=0;points=[[0,0.5],[1,0.5]];portConstraint=eastwest;" parent="iCxR82LuGbeLRVv5gzeX-76" vertex="1">
          <mxGeometry y="60" width="180" height="30" as="geometry" />
        </mxCell>
        <mxCell id="iCxR82LuGbeLRVv5gzeX-81" value="" style="shape=partialRectangle;connectable=0;fillColor=none;top=0;left=0;bottom=0;right=0;editable=1;overflow=hidden;" parent="iCxR82LuGbeLRVv5gzeX-80" vertex="1">
          <mxGeometry width="30" height="30" as="geometry" />
        </mxCell>
        <mxCell id="iCxR82LuGbeLRVv5gzeX-82" value="Sigorta" style="shape=partialRectangle;connectable=0;fillColor=none;top=0;left=0;bottom=0;right=0;align=left;spacingLeft=6;overflow=hidden;" parent="iCxR82LuGbeLRVv5gzeX-80" vertex="1">
          <mxGeometry x="30" width="150" height="30" as="geometry" />
        </mxCell>
        <mxCell id="iCxR82LuGbeLRVv5gzeX-83" value="" style="shape=partialRectangle;collapsible=0;dropTarget=0;pointerEvents=0;fillColor=none;top=0;left=0;bottom=0;right=0;points=[[0,0.5],[1,0.5]];portConstraint=eastwest;" parent="iCxR82LuGbeLRVv5gzeX-76" vertex="1">
          <mxGeometry y="90" width="180" height="30" as="geometry" />
        </mxCell>
        <mxCell id="iCxR82LuGbeLRVv5gzeX-84" value="" style="shape=partialRectangle;connectable=0;fillColor=none;top=0;left=0;bottom=0;right=0;editable=1;overflow=hidden;" parent="iCxR82LuGbeLRVv5gzeX-83" vertex="1">
          <mxGeometry width="30" height="30" as="geometry" />
        </mxCell>
        <mxCell id="iCxR82LuGbeLRVv5gzeX-85" value="KronikHastalık" style="shape=partialRectangle;connectable=0;fillColor=none;top=0;left=0;bottom=0;right=0;align=left;spacingLeft=6;overflow=hidden;" parent="iCxR82LuGbeLRVv5gzeX-83" vertex="1">
          <mxGeometry x="30" width="150" height="30" as="geometry" />
        </mxCell>
        <mxCell id="iCxR82LuGbeLRVv5gzeX-86" value="" style="shape=partialRectangle;collapsible=0;dropTarget=0;pointerEvents=0;fillColor=none;top=0;left=0;bottom=0;right=0;points=[[0,0.5],[1,0.5]];portConstraint=eastwest;" parent="iCxR82LuGbeLRVv5gzeX-76" vertex="1">
          <mxGeometry y="120" width="180" height="30" as="geometry" />
        </mxCell>
        <mxCell id="iCxR82LuGbeLRVv5gzeX-87" value="" style="shape=partialRectangle;connectable=0;fillColor=none;top=0;left=0;bottom=0;right=0;editable=1;overflow=hidden;" parent="iCxR82LuGbeLRVv5gzeX-86" vertex="1">
          <mxGeometry width="30" height="30" as="geometry" />
        </mxCell>
        <mxCell id="iCxR82LuGbeLRVv5gzeX-88" value="" style="shape=partialRectangle;connectable=0;fillColor=none;top=0;left=0;bottom=0;right=0;align=left;spacingLeft=6;overflow=hidden;" parent="iCxR82LuGbeLRVv5gzeX-86" vertex="1">
          <mxGeometry x="30" width="150" height="30" as="geometry" />
        </mxCell>
        <mxCell id="iCxR82LuGbeLRVv5gzeX-90" value="FK" style="text;html=1;align=center;verticalAlign=middle;resizable=0;points=[];autosize=1;" parent="1" vertex="1">
          <mxGeometry x="980" y="970" width="30" height="20" as="geometry" />
        </mxCell>
        <mxCell id="iCxR82LuGbeLRVv5gzeX-91" value="AdresNo" style="text;html=1;align=center;verticalAlign=middle;resizable=0;points=[];autosize=1;" parent="1" vertex="1">
          <mxGeometry x="1013" y="970" width="60" height="20" as="geometry" />
        </mxCell>
        <mxCell id="iCxR82LuGbeLRVv5gzeX-93" value="DOKTOR-HASTA" style="shape=table;startSize=30;container=1;collapsible=1;childLayout=tableLayout;fixedRows=1;rowLines=0;fontStyle=1;align=center;resizeLast=1;fontSize=13;" parent="1" vertex="1">
          <mxGeometry x="1120" y="1180" width="180" height="160" as="geometry" />
        </mxCell>
        <mxCell id="iCxR82LuGbeLRVv5gzeX-94" value="" style="shape=partialRectangle;collapsible=0;dropTarget=0;pointerEvents=0;fillColor=none;top=0;left=0;bottom=1;right=0;points=[[0,0.5],[1,0.5]];portConstraint=eastwest;" parent="iCxR82LuGbeLRVv5gzeX-93" vertex="1">
          <mxGeometry y="30" width="180" height="30" as="geometry" />
        </mxCell>
        <mxCell id="iCxR82LuGbeLRVv5gzeX-95" value="PK" style="shape=partialRectangle;connectable=0;fillColor=none;top=0;left=0;bottom=0;right=0;fontStyle=1;overflow=hidden;" parent="iCxR82LuGbeLRVv5gzeX-94" vertex="1">
          <mxGeometry width="30" height="30" as="geometry" />
        </mxCell>
        <mxCell id="iCxR82LuGbeLRVv5gzeX-96" value="No" style="shape=partialRectangle;connectable=0;fillColor=none;top=0;left=0;bottom=0;right=0;align=left;spacingLeft=6;fontStyle=5;overflow=hidden;" parent="iCxR82LuGbeLRVv5gzeX-94" vertex="1">
          <mxGeometry x="30" width="150" height="30" as="geometry" />
        </mxCell>
        <mxCell id="iCxR82LuGbeLRVv5gzeX-97" value="" style="shape=partialRectangle;collapsible=0;dropTarget=0;pointerEvents=0;fillColor=none;top=0;left=0;bottom=0;right=0;points=[[0,0.5],[1,0.5]];portConstraint=eastwest;" parent="iCxR82LuGbeLRVv5gzeX-93" vertex="1">
          <mxGeometry y="60" width="180" height="30" as="geometry" />
        </mxCell>
        <mxCell id="iCxR82LuGbeLRVv5gzeX-98" value="FK" style="shape=partialRectangle;connectable=0;fillColor=none;top=0;left=0;bottom=0;right=0;editable=1;overflow=hidden;" parent="iCxR82LuGbeLRVv5gzeX-97" vertex="1">
          <mxGeometry width="30" height="30" as="geometry" />
        </mxCell>
        <mxCell id="iCxR82LuGbeLRVv5gzeX-99" value="HastaNo" style="shape=partialRectangle;connectable=0;fillColor=none;top=0;left=0;bottom=0;right=0;align=left;spacingLeft=6;overflow=hidden;" parent="iCxR82LuGbeLRVv5gzeX-97" vertex="1">
          <mxGeometry x="30" width="150" height="30" as="geometry" />
        </mxCell>
        <mxCell id="iCxR82LuGbeLRVv5gzeX-100" value="" style="shape=partialRectangle;collapsible=0;dropTarget=0;pointerEvents=0;fillColor=none;top=0;left=0;bottom=0;right=0;points=[[0,0.5],[1,0.5]];portConstraint=eastwest;" parent="iCxR82LuGbeLRVv5gzeX-93" vertex="1">
          <mxGeometry y="90" width="180" height="30" as="geometry" />
        </mxCell>
        <mxCell id="iCxR82LuGbeLRVv5gzeX-101" value="FK" style="shape=partialRectangle;connectable=0;fillColor=none;top=0;left=0;bottom=0;right=0;editable=1;overflow=hidden;" parent="iCxR82LuGbeLRVv5gzeX-100" vertex="1">
          <mxGeometry width="30" height="30" as="geometry" />
        </mxCell>
        <mxCell id="iCxR82LuGbeLRVv5gzeX-102" value="DoktorNo" style="shape=partialRectangle;connectable=0;fillColor=none;top=0;left=0;bottom=0;right=0;align=left;spacingLeft=6;overflow=hidden;" parent="iCxR82LuGbeLRVv5gzeX-100" vertex="1">
          <mxGeometry x="30" width="150" height="30" as="geometry" />
        </mxCell>
        <mxCell id="iCxR82LuGbeLRVv5gzeX-103" value="" style="shape=partialRectangle;collapsible=0;dropTarget=0;pointerEvents=0;fillColor=none;top=0;left=0;bottom=0;right=0;points=[[0,0.5],[1,0.5]];portConstraint=eastwest;" parent="iCxR82LuGbeLRVv5gzeX-93" vertex="1">
          <mxGeometry y="120" width="180" height="30" as="geometry" />
        </mxCell>
        <mxCell id="iCxR82LuGbeLRVv5gzeX-104" value="" style="shape=partialRectangle;connectable=0;fillColor=none;top=0;left=0;bottom=0;right=0;editable=1;overflow=hidden;" parent="iCxR82LuGbeLRVv5gzeX-103" vertex="1">
          <mxGeometry width="30" height="30" as="geometry" />
        </mxCell>
        <mxCell id="iCxR82LuGbeLRVv5gzeX-105" value="" style="shape=partialRectangle;connectable=0;fillColor=none;top=0;left=0;bottom=0;right=0;align=left;spacingLeft=6;overflow=hidden;" parent="iCxR82LuGbeLRVv5gzeX-103" vertex="1">
          <mxGeometry x="30" width="150" height="30" as="geometry" />
        </mxCell>
        <mxCell id="iCxR82LuGbeLRVv5gzeX-120" value="CüzdanNo" style="shape=partialRectangle;connectable=0;fillColor=none;top=0;left=0;bottom=0;right=0;align=left;spacingLeft=6;overflow=hidden;" parent="1" vertex="1">
          <mxGeometry x="1292.5" y="870" width="150" height="30" as="geometry" />
        </mxCell>
        <mxCell id="iCxR82LuGbeLRVv5gzeX-121" value="TakvimNo" style="shape=partialRectangle;connectable=0;fillColor=none;top=0;left=0;bottom=0;right=0;align=left;spacingLeft=6;overflow=hidden;" parent="1" vertex="1">
          <mxGeometry x="1285" y="960" width="150" height="30" as="geometry" />
        </mxCell>
        <mxCell id="iCxR82LuGbeLRVv5gzeX-122" value="ServisNo" style="shape=partialRectangle;connectable=0;fillColor=none;top=0;left=0;bottom=0;right=0;align=left;spacingLeft=6;overflow=hidden;" parent="1" vertex="1">
          <mxGeometry x="1292.5" y="995" width="150" height="30" as="geometry" />
        </mxCell>
        <mxCell id="iCxR82LuGbeLRVv5gzeX-127" value="ALANLAR" style="shape=table;startSize=30;container=1;collapsible=1;childLayout=tableLayout;fixedRows=1;rowLines=0;fontStyle=1;align=center;resizeLast=1;fontSize=13;" parent="1" vertex="1">
          <mxGeometry x="1460" y="1100" width="180" height="160" as="geometry" />
        </mxCell>
        <mxCell id="iCxR82LuGbeLRVv5gzeX-128" value="" style="shape=partialRectangle;collapsible=0;dropTarget=0;pointerEvents=0;fillColor=none;top=0;left=0;bottom=1;right=0;points=[[0,0.5],[1,0.5]];portConstraint=eastwest;" parent="iCxR82LuGbeLRVv5gzeX-127" vertex="1">
          <mxGeometry y="30" width="180" height="30" as="geometry" />
        </mxCell>
        <mxCell id="iCxR82LuGbeLRVv5gzeX-129" value="PK" style="shape=partialRectangle;connectable=0;fillColor=none;top=0;left=0;bottom=0;right=0;fontStyle=1;overflow=hidden;" parent="iCxR82LuGbeLRVv5gzeX-128" vertex="1">
          <mxGeometry width="30" height="30" as="geometry" />
        </mxCell>
        <mxCell id="iCxR82LuGbeLRVv5gzeX-130" value="No" style="shape=partialRectangle;connectable=0;fillColor=none;top=0;left=0;bottom=0;right=0;align=left;spacingLeft=6;fontStyle=5;overflow=hidden;" parent="iCxR82LuGbeLRVv5gzeX-128" vertex="1">
          <mxGeometry x="30" width="150" height="30" as="geometry" />
        </mxCell>
        <mxCell id="iCxR82LuGbeLRVv5gzeX-131" value="" style="shape=partialRectangle;collapsible=0;dropTarget=0;pointerEvents=0;fillColor=none;top=0;left=0;bottom=0;right=0;points=[[0,0.5],[1,0.5]];portConstraint=eastwest;" parent="iCxR82LuGbeLRVv5gzeX-127" vertex="1">
          <mxGeometry y="60" width="180" height="30" as="geometry" />
        </mxCell>
        <mxCell id="iCxR82LuGbeLRVv5gzeX-132" value="" style="shape=partialRectangle;connectable=0;fillColor=none;top=0;left=0;bottom=0;right=0;editable=1;overflow=hidden;" parent="iCxR82LuGbeLRVv5gzeX-131" vertex="1">
          <mxGeometry width="30" height="30" as="geometry" />
        </mxCell>
        <mxCell id="iCxR82LuGbeLRVv5gzeX-133" value="Adı" style="shape=partialRectangle;connectable=0;fillColor=none;top=0;left=0;bottom=0;right=0;align=left;spacingLeft=6;overflow=hidden;" parent="iCxR82LuGbeLRVv5gzeX-131" vertex="1">
          <mxGeometry x="30" width="150" height="30" as="geometry" />
        </mxCell>
        <mxCell id="iCxR82LuGbeLRVv5gzeX-134" value="" style="shape=partialRectangle;collapsible=0;dropTarget=0;pointerEvents=0;fillColor=none;top=0;left=0;bottom=0;right=0;points=[[0,0.5],[1,0.5]];portConstraint=eastwest;" parent="iCxR82LuGbeLRVv5gzeX-127" vertex="1">
          <mxGeometry y="90" width="180" height="30" as="geometry" />
        </mxCell>
        <mxCell id="iCxR82LuGbeLRVv5gzeX-135" value="" style="shape=partialRectangle;connectable=0;fillColor=none;top=0;left=0;bottom=0;right=0;editable=1;overflow=hidden;" parent="iCxR82LuGbeLRVv5gzeX-134" vertex="1">
          <mxGeometry width="30" height="30" as="geometry" />
        </mxCell>
        <mxCell id="iCxR82LuGbeLRVv5gzeX-136" value="Kategori" style="shape=partialRectangle;connectable=0;fillColor=none;top=0;left=0;bottom=0;right=0;align=left;spacingLeft=6;overflow=hidden;" parent="iCxR82LuGbeLRVv5gzeX-134" vertex="1">
          <mxGeometry x="30" width="150" height="30" as="geometry" />
        </mxCell>
        <mxCell id="iCxR82LuGbeLRVv5gzeX-137" value="" style="shape=partialRectangle;collapsible=0;dropTarget=0;pointerEvents=0;fillColor=none;top=0;left=0;bottom=0;right=0;points=[[0,0.5],[1,0.5]];portConstraint=eastwest;" parent="iCxR82LuGbeLRVv5gzeX-127" vertex="1">
          <mxGeometry y="120" width="180" height="30" as="geometry" />
        </mxCell>
        <mxCell id="iCxR82LuGbeLRVv5gzeX-138" value="" style="shape=partialRectangle;connectable=0;fillColor=none;top=0;left=0;bottom=0;right=0;editable=1;overflow=hidden;" parent="iCxR82LuGbeLRVv5gzeX-137" vertex="1">
          <mxGeometry width="30" height="30" as="geometry" />
        </mxCell>
        <mxCell id="iCxR82LuGbeLRVv5gzeX-139" value="" style="shape=partialRectangle;connectable=0;fillColor=none;top=0;left=0;bottom=0;right=0;align=left;spacingLeft=6;overflow=hidden;" parent="iCxR82LuGbeLRVv5gzeX-137" vertex="1">
          <mxGeometry x="30" width="150" height="30" as="geometry" />
        </mxCell>
        <mxCell id="iCxR82LuGbeLRVv5gzeX-140" value="Maas" style="shape=table;startSize=30;container=1;collapsible=1;childLayout=tableLayout;fixedRows=1;rowLines=0;fontStyle=1;align=center;resizeLast=1;fontSize=13;" parent="1" vertex="1">
          <mxGeometry x="1810" y="1210" width="180" height="160" as="geometry" />
        </mxCell>
        <mxCell id="iCxR82LuGbeLRVv5gzeX-141" value="" style="shape=partialRectangle;collapsible=0;dropTarget=0;pointerEvents=0;fillColor=none;top=0;left=0;bottom=1;right=0;points=[[0,0.5],[1,0.5]];portConstraint=eastwest;" parent="iCxR82LuGbeLRVv5gzeX-140" vertex="1">
          <mxGeometry y="30" width="180" height="30" as="geometry" />
        </mxCell>
        <mxCell id="iCxR82LuGbeLRVv5gzeX-142" value="PK" style="shape=partialRectangle;connectable=0;fillColor=none;top=0;left=0;bottom=0;right=0;fontStyle=1;overflow=hidden;" parent="iCxR82LuGbeLRVv5gzeX-141" vertex="1">
          <mxGeometry width="30" height="30" as="geometry" />
        </mxCell>
        <mxCell id="iCxR82LuGbeLRVv5gzeX-143" value="No" style="shape=partialRectangle;connectable=0;fillColor=none;top=0;left=0;bottom=0;right=0;align=left;spacingLeft=6;fontStyle=5;overflow=hidden;" parent="iCxR82LuGbeLRVv5gzeX-141" vertex="1">
          <mxGeometry x="30" width="150" height="30" as="geometry" />
        </mxCell>
        <mxCell id="iCxR82LuGbeLRVv5gzeX-144" value="" style="shape=partialRectangle;collapsible=0;dropTarget=0;pointerEvents=0;fillColor=none;top=0;left=0;bottom=0;right=0;points=[[0,0.5],[1,0.5]];portConstraint=eastwest;" parent="iCxR82LuGbeLRVv5gzeX-140" vertex="1">
          <mxGeometry y="60" width="180" height="30" as="geometry" />
        </mxCell>
        <mxCell id="iCxR82LuGbeLRVv5gzeX-145" value="" style="shape=partialRectangle;connectable=0;fillColor=none;top=0;left=0;bottom=0;right=0;editable=1;overflow=hidden;" parent="iCxR82LuGbeLRVv5gzeX-144" vertex="1">
          <mxGeometry width="30" height="30" as="geometry" />
        </mxCell>
        <mxCell id="iCxR82LuGbeLRVv5gzeX-146" value="Maas" style="shape=partialRectangle;connectable=0;fillColor=none;top=0;left=0;bottom=0;right=0;align=left;spacingLeft=6;overflow=hidden;" parent="iCxR82LuGbeLRVv5gzeX-144" vertex="1">
          <mxGeometry x="30" width="150" height="30" as="geometry" />
        </mxCell>
        <mxCell id="iCxR82LuGbeLRVv5gzeX-147" value="" style="shape=partialRectangle;collapsible=0;dropTarget=0;pointerEvents=0;fillColor=none;top=0;left=0;bottom=0;right=0;points=[[0,0.5],[1,0.5]];portConstraint=eastwest;" parent="iCxR82LuGbeLRVv5gzeX-140" vertex="1">
          <mxGeometry y="90" width="180" height="30" as="geometry" />
        </mxCell>
        <mxCell id="iCxR82LuGbeLRVv5gzeX-148" value="" style="shape=partialRectangle;connectable=0;fillColor=none;top=0;left=0;bottom=0;right=0;editable=1;overflow=hidden;" parent="iCxR82LuGbeLRVv5gzeX-147" vertex="1">
          <mxGeometry width="30" height="30" as="geometry" />
        </mxCell>
        <mxCell id="iCxR82LuGbeLRVv5gzeX-149" value="Ekstra" style="shape=partialRectangle;connectable=0;fillColor=none;top=0;left=0;bottom=0;right=0;align=left;spacingLeft=6;overflow=hidden;" parent="iCxR82LuGbeLRVv5gzeX-147" vertex="1">
          <mxGeometry x="30" width="150" height="30" as="geometry" />
        </mxCell>
        <mxCell id="iCxR82LuGbeLRVv5gzeX-150" value="" style="shape=partialRectangle;collapsible=0;dropTarget=0;pointerEvents=0;fillColor=none;top=0;left=0;bottom=0;right=0;points=[[0,0.5],[1,0.5]];portConstraint=eastwest;" parent="iCxR82LuGbeLRVv5gzeX-140" vertex="1">
          <mxGeometry y="120" width="180" height="30" as="geometry" />
        </mxCell>
        <mxCell id="iCxR82LuGbeLRVv5gzeX-151" value="" style="shape=partialRectangle;connectable=0;fillColor=none;top=0;left=0;bottom=0;right=0;editable=1;overflow=hidden;" parent="iCxR82LuGbeLRVv5gzeX-150" vertex="1">
          <mxGeometry width="30" height="30" as="geometry" />
        </mxCell>
        <mxCell id="iCxR82LuGbeLRVv5gzeX-152" value="Tarih" style="shape=partialRectangle;connectable=0;fillColor=none;top=0;left=0;bottom=0;right=0;align=left;spacingLeft=6;overflow=hidden;" parent="iCxR82LuGbeLRVv5gzeX-150" vertex="1">
          <mxGeometry x="30" width="150" height="30" as="geometry" />
        </mxCell>
        <mxCell id="iCxR82LuGbeLRVv5gzeX-155" value="SERVİS" style="shape=table;startSize=30;container=1;collapsible=1;childLayout=tableLayout;fixedRows=1;rowLines=0;fontStyle=1;align=center;resizeLast=1;fontSize=13;" parent="1" vertex="1">
          <mxGeometry x="2020" y="1450" width="180" height="190" as="geometry" />
        </mxCell>
        <mxCell id="iCxR82LuGbeLRVv5gzeX-156" value="" style="shape=partialRectangle;collapsible=0;dropTarget=0;pointerEvents=0;fillColor=none;top=0;left=0;bottom=1;right=0;points=[[0,0.5],[1,0.5]];portConstraint=eastwest;" parent="iCxR82LuGbeLRVv5gzeX-155" vertex="1">
          <mxGeometry y="30" width="180" height="30" as="geometry" />
        </mxCell>
        <mxCell id="iCxR82LuGbeLRVv5gzeX-157" value="PK" style="shape=partialRectangle;connectable=0;fillColor=none;top=0;left=0;bottom=0;right=0;fontStyle=1;overflow=hidden;" parent="iCxR82LuGbeLRVv5gzeX-156" vertex="1">
          <mxGeometry width="30" height="30" as="geometry" />
        </mxCell>
        <mxCell id="iCxR82LuGbeLRVv5gzeX-158" value="No" style="shape=partialRectangle;connectable=0;fillColor=none;top=0;left=0;bottom=0;right=0;align=left;spacingLeft=6;fontStyle=5;overflow=hidden;" parent="iCxR82LuGbeLRVv5gzeX-156" vertex="1">
          <mxGeometry x="30" width="150" height="30" as="geometry" />
        </mxCell>
        <mxCell id="iCxR82LuGbeLRVv5gzeX-169" value="" style="shape=partialRectangle;collapsible=0;dropTarget=0;pointerEvents=0;fillColor=none;top=0;left=0;bottom=0;right=0;points=[[0,0.5],[1,0.5]];portConstraint=eastwest;" parent="iCxR82LuGbeLRVv5gzeX-155" vertex="1">
          <mxGeometry y="60" width="180" height="30" as="geometry" />
        </mxCell>
        <mxCell id="iCxR82LuGbeLRVv5gzeX-170" value="FK" style="shape=partialRectangle;connectable=0;fillColor=none;top=0;left=0;bottom=0;right=0;editable=1;overflow=hidden;" parent="iCxR82LuGbeLRVv5gzeX-169" vertex="1">
          <mxGeometry width="30" height="30" as="geometry" />
        </mxCell>
        <mxCell id="iCxR82LuGbeLRVv5gzeX-171" value="ŞoförNo" style="shape=partialRectangle;connectable=0;fillColor=none;top=0;left=0;bottom=0;right=0;align=left;spacingLeft=6;overflow=hidden;" parent="iCxR82LuGbeLRVv5gzeX-169" vertex="1">
          <mxGeometry x="30" width="150" height="30" as="geometry" />
        </mxCell>
        <mxCell id="iCxR82LuGbeLRVv5gzeX-159" value="" style="shape=partialRectangle;collapsible=0;dropTarget=0;pointerEvents=0;fillColor=none;top=0;left=0;bottom=0;right=0;points=[[0,0.5],[1,0.5]];portConstraint=eastwest;" parent="iCxR82LuGbeLRVv5gzeX-155" vertex="1">
          <mxGeometry y="90" width="180" height="30" as="geometry" />
        </mxCell>
        <mxCell id="iCxR82LuGbeLRVv5gzeX-160" value="" style="shape=partialRectangle;connectable=0;fillColor=none;top=0;left=0;bottom=0;right=0;editable=1;overflow=hidden;" parent="iCxR82LuGbeLRVv5gzeX-159" vertex="1">
          <mxGeometry width="30" height="30" as="geometry" />
        </mxCell>
        <mxCell id="iCxR82LuGbeLRVv5gzeX-161" value="ŞoförAdı" style="shape=partialRectangle;connectable=0;fillColor=none;top=0;left=0;bottom=0;right=0;align=left;spacingLeft=6;overflow=hidden;" parent="iCxR82LuGbeLRVv5gzeX-159" vertex="1">
          <mxGeometry x="30" width="150" height="30" as="geometry" />
        </mxCell>
        <mxCell id="iCxR82LuGbeLRVv5gzeX-162" value="" style="shape=partialRectangle;collapsible=0;dropTarget=0;pointerEvents=0;fillColor=none;top=0;left=0;bottom=0;right=0;points=[[0,0.5],[1,0.5]];portConstraint=eastwest;" parent="iCxR82LuGbeLRVv5gzeX-155" vertex="1">
          <mxGeometry y="120" width="180" height="30" as="geometry" />
        </mxCell>
        <mxCell id="iCxR82LuGbeLRVv5gzeX-163" value="" style="shape=partialRectangle;connectable=0;fillColor=none;top=0;left=0;bottom=0;right=0;editable=1;overflow=hidden;" parent="iCxR82LuGbeLRVv5gzeX-162" vertex="1">
          <mxGeometry width="30" height="30" as="geometry" />
        </mxCell>
        <mxCell id="iCxR82LuGbeLRVv5gzeX-164" value="PlakaNo" style="shape=partialRectangle;connectable=0;fillColor=none;top=0;left=0;bottom=0;right=0;align=left;spacingLeft=6;overflow=hidden;" parent="iCxR82LuGbeLRVv5gzeX-162" vertex="1">
          <mxGeometry x="30" width="150" height="30" as="geometry" />
        </mxCell>
        <mxCell id="iCxR82LuGbeLRVv5gzeX-165" value="" style="shape=partialRectangle;collapsible=0;dropTarget=0;pointerEvents=0;fillColor=none;top=0;left=0;bottom=0;right=0;points=[[0,0.5],[1,0.5]];portConstraint=eastwest;" parent="iCxR82LuGbeLRVv5gzeX-155" vertex="1">
          <mxGeometry y="150" width="180" height="30" as="geometry" />
        </mxCell>
        <mxCell id="iCxR82LuGbeLRVv5gzeX-166" value="" style="shape=partialRectangle;connectable=0;fillColor=none;top=0;left=0;bottom=0;right=0;editable=1;overflow=hidden;" parent="iCxR82LuGbeLRVv5gzeX-165" vertex="1">
          <mxGeometry width="30" height="30" as="geometry" />
        </mxCell>
        <mxCell id="iCxR82LuGbeLRVv5gzeX-167" value="KoltukAdet" style="shape=partialRectangle;connectable=0;fillColor=none;top=0;left=0;bottom=0;right=0;align=left;spacingLeft=6;overflow=hidden;" parent="iCxR82LuGbeLRVv5gzeX-165" vertex="1">
          <mxGeometry x="30" width="150" height="30" as="geometry" />
        </mxCell>
        <mxCell id="iCxR82LuGbeLRVv5gzeX-350" style="edgeStyle=orthogonalEdgeStyle;rounded=0;orthogonalLoop=1;jettySize=auto;html=1;exitX=0.25;exitY=1;exitDx=0;exitDy=0;entryX=1;entryY=0.5;entryDx=0;entryDy=0;startArrow=ERmandOne;startFill=0;endArrow=ERmandOne;endFill=0;fontSize=13;" parent="1" source="iCxR82LuGbeLRVv5gzeX-177" target="iCxR82LuGbeLRVv5gzeX-68" edge="1">
          <mxGeometry relative="1" as="geometry" />
        </mxCell>
        <mxCell id="iCxR82LuGbeLRVv5gzeX-177" value="CALISMA-TAKVİMİ" style="shape=table;startSize=30;container=1;collapsible=1;childLayout=tableLayout;fixedRows=1;rowLines=0;fontStyle=1;align=center;resizeLast=1;fontSize=13;" parent="1" vertex="1">
          <mxGeometry x="1460" y="1310" width="180" height="190" as="geometry" />
        </mxCell>
        <mxCell id="iCxR82LuGbeLRVv5gzeX-178" value="" style="shape=partialRectangle;collapsible=0;dropTarget=0;pointerEvents=0;fillColor=none;top=0;left=0;bottom=1;right=0;points=[[0,0.5],[1,0.5]];portConstraint=eastwest;" parent="iCxR82LuGbeLRVv5gzeX-177" vertex="1">
          <mxGeometry y="30" width="180" height="30" as="geometry" />
        </mxCell>
        <mxCell id="iCxR82LuGbeLRVv5gzeX-179" value="PK" style="shape=partialRectangle;connectable=0;fillColor=none;top=0;left=0;bottom=0;right=0;fontStyle=1;overflow=hidden;" parent="iCxR82LuGbeLRVv5gzeX-178" vertex="1">
          <mxGeometry width="30" height="30" as="geometry" />
        </mxCell>
        <mxCell id="iCxR82LuGbeLRVv5gzeX-180" value="No" style="shape=partialRectangle;connectable=0;fillColor=none;top=0;left=0;bottom=0;right=0;align=left;spacingLeft=6;fontStyle=5;overflow=hidden;" parent="iCxR82LuGbeLRVv5gzeX-178" vertex="1">
          <mxGeometry x="30" width="150" height="30" as="geometry" />
        </mxCell>
        <mxCell id="iCxR82LuGbeLRVv5gzeX-181" value="" style="shape=partialRectangle;collapsible=0;dropTarget=0;pointerEvents=0;fillColor=none;top=0;left=0;bottom=0;right=0;points=[[0,0.5],[1,0.5]];portConstraint=eastwest;" parent="iCxR82LuGbeLRVv5gzeX-177" vertex="1">
          <mxGeometry y="60" width="180" height="30" as="geometry" />
        </mxCell>
        <mxCell id="iCxR82LuGbeLRVv5gzeX-182" value="" style="shape=partialRectangle;connectable=0;fillColor=none;top=0;left=0;bottom=0;right=0;editable=1;overflow=hidden;" parent="iCxR82LuGbeLRVv5gzeX-181" vertex="1">
          <mxGeometry width="30" height="30" as="geometry" />
        </mxCell>
        <mxCell id="iCxR82LuGbeLRVv5gzeX-183" value="Gün" style="shape=partialRectangle;connectable=0;fillColor=none;top=0;left=0;bottom=0;right=0;align=left;spacingLeft=6;overflow=hidden;" parent="iCxR82LuGbeLRVv5gzeX-181" vertex="1">
          <mxGeometry x="30" width="150" height="30" as="geometry" />
        </mxCell>
        <mxCell id="iCxR82LuGbeLRVv5gzeX-184" value="" style="shape=partialRectangle;collapsible=0;dropTarget=0;pointerEvents=0;fillColor=none;top=0;left=0;bottom=0;right=0;points=[[0,0.5],[1,0.5]];portConstraint=eastwest;" parent="iCxR82LuGbeLRVv5gzeX-177" vertex="1">
          <mxGeometry y="90" width="180" height="30" as="geometry" />
        </mxCell>
        <mxCell id="iCxR82LuGbeLRVv5gzeX-185" value="" style="shape=partialRectangle;connectable=0;fillColor=none;top=0;left=0;bottom=0;right=0;editable=1;overflow=hidden;" parent="iCxR82LuGbeLRVv5gzeX-184" vertex="1">
          <mxGeometry width="30" height="30" as="geometry" />
        </mxCell>
        <mxCell id="iCxR82LuGbeLRVv5gzeX-186" value="Ay" style="shape=partialRectangle;connectable=0;fillColor=none;top=0;left=0;bottom=0;right=0;align=left;spacingLeft=6;overflow=hidden;" parent="iCxR82LuGbeLRVv5gzeX-184" vertex="1">
          <mxGeometry x="30" width="150" height="30" as="geometry" />
        </mxCell>
        <mxCell id="iCxR82LuGbeLRVv5gzeX-187" value="" style="shape=partialRectangle;collapsible=0;dropTarget=0;pointerEvents=0;fillColor=none;top=0;left=0;bottom=0;right=0;points=[[0,0.5],[1,0.5]];portConstraint=eastwest;" parent="iCxR82LuGbeLRVv5gzeX-177" vertex="1">
          <mxGeometry y="120" width="180" height="30" as="geometry" />
        </mxCell>
        <mxCell id="iCxR82LuGbeLRVv5gzeX-188" value="" style="shape=partialRectangle;connectable=0;fillColor=none;top=0;left=0;bottom=0;right=0;editable=1;overflow=hidden;" parent="iCxR82LuGbeLRVv5gzeX-187" vertex="1">
          <mxGeometry width="30" height="30" as="geometry" />
        </mxCell>
        <mxCell id="iCxR82LuGbeLRVv5gzeX-189" value="Yıl" style="shape=partialRectangle;connectable=0;fillColor=none;top=0;left=0;bottom=0;right=0;align=left;spacingLeft=6;overflow=hidden;" parent="iCxR82LuGbeLRVv5gzeX-187" vertex="1">
          <mxGeometry x="30" width="150" height="30" as="geometry" />
        </mxCell>
        <mxCell id="iCxR82LuGbeLRVv5gzeX-200" value="GERİ-BİLDİRİM" style="shape=table;startSize=30;container=1;collapsible=1;childLayout=tableLayout;fixedRows=1;rowLines=0;fontStyle=1;align=center;resizeLast=1;fontSize=13;" parent="1" vertex="1">
          <mxGeometry x="1120" y="1450" width="180" height="160" as="geometry" />
        </mxCell>
        <mxCell id="iCxR82LuGbeLRVv5gzeX-201" value="" style="shape=partialRectangle;collapsible=0;dropTarget=0;pointerEvents=0;fillColor=none;top=0;left=0;bottom=1;right=0;points=[[0,0.5],[1,0.5]];portConstraint=eastwest;" parent="iCxR82LuGbeLRVv5gzeX-200" vertex="1">
          <mxGeometry y="30" width="180" height="30" as="geometry" />
        </mxCell>
        <mxCell id="iCxR82LuGbeLRVv5gzeX-202" value="PK" style="shape=partialRectangle;connectable=0;fillColor=none;top=0;left=0;bottom=0;right=0;fontStyle=1;overflow=hidden;" parent="iCxR82LuGbeLRVv5gzeX-201" vertex="1">
          <mxGeometry width="30" height="30" as="geometry" />
        </mxCell>
        <mxCell id="iCxR82LuGbeLRVv5gzeX-203" value="No" style="shape=partialRectangle;connectable=0;fillColor=none;top=0;left=0;bottom=0;right=0;align=left;spacingLeft=6;fontStyle=5;overflow=hidden;" parent="iCxR82LuGbeLRVv5gzeX-201" vertex="1">
          <mxGeometry x="30" width="150" height="30" as="geometry" />
        </mxCell>
        <mxCell id="iCxR82LuGbeLRVv5gzeX-204" value="" style="shape=partialRectangle;collapsible=0;dropTarget=0;pointerEvents=0;fillColor=none;top=0;left=0;bottom=0;right=0;points=[[0,0.5],[1,0.5]];portConstraint=eastwest;" parent="iCxR82LuGbeLRVv5gzeX-200" vertex="1">
          <mxGeometry y="60" width="180" height="30" as="geometry" />
        </mxCell>
        <mxCell id="iCxR82LuGbeLRVv5gzeX-205" value="FK" style="shape=partialRectangle;connectable=0;fillColor=none;top=0;left=0;bottom=0;right=0;editable=1;overflow=hidden;" parent="iCxR82LuGbeLRVv5gzeX-204" vertex="1">
          <mxGeometry width="30" height="30" as="geometry" />
        </mxCell>
        <mxCell id="iCxR82LuGbeLRVv5gzeX-206" value="HastaNo" style="shape=partialRectangle;connectable=0;fillColor=none;top=0;left=0;bottom=0;right=0;align=left;spacingLeft=6;overflow=hidden;" parent="iCxR82LuGbeLRVv5gzeX-204" vertex="1">
          <mxGeometry x="30" width="150" height="30" as="geometry" />
        </mxCell>
        <mxCell id="iCxR82LuGbeLRVv5gzeX-207" value="" style="shape=partialRectangle;collapsible=0;dropTarget=0;pointerEvents=0;fillColor=none;top=0;left=0;bottom=0;right=0;points=[[0,0.5],[1,0.5]];portConstraint=eastwest;" parent="iCxR82LuGbeLRVv5gzeX-200" vertex="1">
          <mxGeometry y="90" width="180" height="30" as="geometry" />
        </mxCell>
        <mxCell id="iCxR82LuGbeLRVv5gzeX-208" value="FK" style="shape=partialRectangle;connectable=0;fillColor=none;top=0;left=0;bottom=0;right=0;editable=1;overflow=hidden;" parent="iCxR82LuGbeLRVv5gzeX-207" vertex="1">
          <mxGeometry width="30" height="30" as="geometry" />
        </mxCell>
        <mxCell id="iCxR82LuGbeLRVv5gzeX-209" value="DoktorNo" style="shape=partialRectangle;connectable=0;fillColor=none;top=0;left=0;bottom=0;right=0;align=left;spacingLeft=6;overflow=hidden;" parent="iCxR82LuGbeLRVv5gzeX-207" vertex="1">
          <mxGeometry x="30" width="150" height="30" as="geometry" />
        </mxCell>
        <mxCell id="iCxR82LuGbeLRVv5gzeX-210" value="" style="shape=partialRectangle;collapsible=0;dropTarget=0;pointerEvents=0;fillColor=none;top=0;left=0;bottom=0;right=0;points=[[0,0.5],[1,0.5]];portConstraint=eastwest;" parent="iCxR82LuGbeLRVv5gzeX-200" vertex="1">
          <mxGeometry y="120" width="180" height="30" as="geometry" />
        </mxCell>
        <mxCell id="iCxR82LuGbeLRVv5gzeX-211" value="" style="shape=partialRectangle;connectable=0;fillColor=none;top=0;left=0;bottom=0;right=0;editable=1;overflow=hidden;" parent="iCxR82LuGbeLRVv5gzeX-210" vertex="1">
          <mxGeometry width="30" height="30" as="geometry" />
        </mxCell>
        <mxCell id="iCxR82LuGbeLRVv5gzeX-212" value="Yorum" style="shape=partialRectangle;connectable=0;fillColor=none;top=0;left=0;bottom=0;right=0;align=left;spacingLeft=6;overflow=hidden;" parent="iCxR82LuGbeLRVv5gzeX-210" vertex="1">
          <mxGeometry x="30" width="150" height="30" as="geometry" />
        </mxCell>
        <mxCell id="iCxR82LuGbeLRVv5gzeX-223" value="REÇETE-DOKTOR" style="shape=table;startSize=30;container=1;collapsible=1;childLayout=tableLayout;fixedRows=1;rowLines=0;fontStyle=1;align=center;resizeLast=1;fontSize=13;" parent="1" vertex="1">
          <mxGeometry x="1350" y="160" width="180" height="160" as="geometry" />
        </mxCell>
        <mxCell id="iCxR82LuGbeLRVv5gzeX-224" value="" style="shape=partialRectangle;collapsible=0;dropTarget=0;pointerEvents=0;fillColor=none;top=0;left=0;bottom=1;right=0;points=[[0,0.5],[1,0.5]];portConstraint=eastwest;" parent="iCxR82LuGbeLRVv5gzeX-223" vertex="1">
          <mxGeometry y="30" width="180" height="30" as="geometry" />
        </mxCell>
        <mxCell id="iCxR82LuGbeLRVv5gzeX-225" value="PK" style="shape=partialRectangle;connectable=0;fillColor=none;top=0;left=0;bottom=0;right=0;fontStyle=1;overflow=hidden;" parent="iCxR82LuGbeLRVv5gzeX-224" vertex="1">
          <mxGeometry width="30" height="30" as="geometry" />
        </mxCell>
        <mxCell id="iCxR82LuGbeLRVv5gzeX-226" value="No" style="shape=partialRectangle;connectable=0;fillColor=none;top=0;left=0;bottom=0;right=0;align=left;spacingLeft=6;fontStyle=5;overflow=hidden;" parent="iCxR82LuGbeLRVv5gzeX-224" vertex="1">
          <mxGeometry x="30" width="150" height="30" as="geometry" />
        </mxCell>
        <mxCell id="iCxR82LuGbeLRVv5gzeX-227" value="" style="shape=partialRectangle;collapsible=0;dropTarget=0;pointerEvents=0;fillColor=none;top=0;left=0;bottom=0;right=0;points=[[0,0.5],[1,0.5]];portConstraint=eastwest;" parent="iCxR82LuGbeLRVv5gzeX-223" vertex="1">
          <mxGeometry y="60" width="180" height="30" as="geometry" />
        </mxCell>
        <mxCell id="iCxR82LuGbeLRVv5gzeX-228" value="FK" style="shape=partialRectangle;connectable=0;fillColor=none;top=0;left=0;bottom=0;right=0;editable=1;overflow=hidden;" parent="iCxR82LuGbeLRVv5gzeX-227" vertex="1">
          <mxGeometry width="30" height="30" as="geometry" />
        </mxCell>
        <mxCell id="iCxR82LuGbeLRVv5gzeX-229" value="ReceteNo" style="shape=partialRectangle;connectable=0;fillColor=none;top=0;left=0;bottom=0;right=0;align=left;spacingLeft=6;overflow=hidden;" parent="iCxR82LuGbeLRVv5gzeX-227" vertex="1">
          <mxGeometry x="30" width="150" height="30" as="geometry" />
        </mxCell>
        <mxCell id="iCxR82LuGbeLRVv5gzeX-230" value="" style="shape=partialRectangle;collapsible=0;dropTarget=0;pointerEvents=0;fillColor=none;top=0;left=0;bottom=0;right=0;points=[[0,0.5],[1,0.5]];portConstraint=eastwest;" parent="iCxR82LuGbeLRVv5gzeX-223" vertex="1">
          <mxGeometry y="90" width="180" height="30" as="geometry" />
        </mxCell>
        <mxCell id="iCxR82LuGbeLRVv5gzeX-231" value="FK" style="shape=partialRectangle;connectable=0;fillColor=none;top=0;left=0;bottom=0;right=0;editable=1;overflow=hidden;" parent="iCxR82LuGbeLRVv5gzeX-230" vertex="1">
          <mxGeometry width="30" height="30" as="geometry" />
        </mxCell>
        <mxCell id="iCxR82LuGbeLRVv5gzeX-232" value="DoktorNo" style="shape=partialRectangle;connectable=0;fillColor=none;top=0;left=0;bottom=0;right=0;align=left;spacingLeft=6;overflow=hidden;" parent="iCxR82LuGbeLRVv5gzeX-230" vertex="1">
          <mxGeometry x="30" width="150" height="30" as="geometry" />
        </mxCell>
        <mxCell id="iCxR82LuGbeLRVv5gzeX-233" value="" style="shape=partialRectangle;collapsible=0;dropTarget=0;pointerEvents=0;fillColor=none;top=0;left=0;bottom=0;right=0;points=[[0,0.5],[1,0.5]];portConstraint=eastwest;" parent="iCxR82LuGbeLRVv5gzeX-223" vertex="1">
          <mxGeometry y="120" width="180" height="30" as="geometry" />
        </mxCell>
        <mxCell id="iCxR82LuGbeLRVv5gzeX-234" value="" style="shape=partialRectangle;connectable=0;fillColor=none;top=0;left=0;bottom=0;right=0;editable=1;overflow=hidden;" parent="iCxR82LuGbeLRVv5gzeX-233" vertex="1">
          <mxGeometry width="30" height="30" as="geometry" />
        </mxCell>
        <mxCell id="iCxR82LuGbeLRVv5gzeX-235" value="" style="shape=partialRectangle;connectable=0;fillColor=none;top=0;left=0;bottom=0;right=0;align=left;spacingLeft=6;overflow=hidden;" parent="iCxR82LuGbeLRVv5gzeX-233" vertex="1">
          <mxGeometry x="30" width="150" height="30" as="geometry" />
        </mxCell>
        <mxCell id="iCxR82LuGbeLRVv5gzeX-236" value="REÇETE" style="shape=table;startSize=30;container=1;collapsible=1;childLayout=tableLayout;fixedRows=1;rowLines=0;fontStyle=1;align=center;resizeLast=1;fontSize=13;" parent="1" vertex="1">
          <mxGeometry x="1100" y="160" width="180" height="160" as="geometry" />
        </mxCell>
        <mxCell id="iCxR82LuGbeLRVv5gzeX-237" value="" style="shape=partialRectangle;collapsible=0;dropTarget=0;pointerEvents=0;fillColor=none;top=0;left=0;bottom=1;right=0;points=[[0,0.5],[1,0.5]];portConstraint=eastwest;" parent="iCxR82LuGbeLRVv5gzeX-236" vertex="1">
          <mxGeometry y="30" width="180" height="30" as="geometry" />
        </mxCell>
        <mxCell id="iCxR82LuGbeLRVv5gzeX-238" value="PK" style="shape=partialRectangle;connectable=0;fillColor=none;top=0;left=0;bottom=0;right=0;fontStyle=1;overflow=hidden;" parent="iCxR82LuGbeLRVv5gzeX-237" vertex="1">
          <mxGeometry width="30" height="30" as="geometry" />
        </mxCell>
        <mxCell id="iCxR82LuGbeLRVv5gzeX-239" value="UniqueID" style="shape=partialRectangle;connectable=0;fillColor=none;top=0;left=0;bottom=0;right=0;align=left;spacingLeft=6;fontStyle=5;overflow=hidden;" parent="iCxR82LuGbeLRVv5gzeX-237" vertex="1">
          <mxGeometry x="30" width="150" height="30" as="geometry" />
        </mxCell>
        <mxCell id="iCxR82LuGbeLRVv5gzeX-240" value="" style="shape=partialRectangle;collapsible=0;dropTarget=0;pointerEvents=0;fillColor=none;top=0;left=0;bottom=0;right=0;points=[[0,0.5],[1,0.5]];portConstraint=eastwest;" parent="iCxR82LuGbeLRVv5gzeX-236" vertex="1">
          <mxGeometry y="60" width="180" height="30" as="geometry" />
        </mxCell>
        <mxCell id="iCxR82LuGbeLRVv5gzeX-241" value="FK" style="shape=partialRectangle;connectable=0;fillColor=none;top=0;left=0;bottom=0;right=0;editable=1;overflow=hidden;" parent="iCxR82LuGbeLRVv5gzeX-240" vertex="1">
          <mxGeometry width="30" height="30" as="geometry" />
        </mxCell>
        <mxCell id="iCxR82LuGbeLRVv5gzeX-242" value="HastaNo" style="shape=partialRectangle;connectable=0;fillColor=none;top=0;left=0;bottom=0;right=0;align=left;spacingLeft=6;overflow=hidden;" parent="iCxR82LuGbeLRVv5gzeX-240" vertex="1">
          <mxGeometry x="30" width="150" height="30" as="geometry" />
        </mxCell>
        <mxCell id="iCxR82LuGbeLRVv5gzeX-243" value="" style="shape=partialRectangle;collapsible=0;dropTarget=0;pointerEvents=0;fillColor=none;top=0;left=0;bottom=0;right=0;points=[[0,0.5],[1,0.5]];portConstraint=eastwest;" parent="iCxR82LuGbeLRVv5gzeX-236" vertex="1">
          <mxGeometry y="90" width="180" height="30" as="geometry" />
        </mxCell>
        <mxCell id="iCxR82LuGbeLRVv5gzeX-244" value="" style="shape=partialRectangle;connectable=0;fillColor=none;top=0;left=0;bottom=0;right=0;editable=1;overflow=hidden;" parent="iCxR82LuGbeLRVv5gzeX-243" vertex="1">
          <mxGeometry width="30" height="30" as="geometry" />
        </mxCell>
        <mxCell id="iCxR82LuGbeLRVv5gzeX-245" value="İçerik" style="shape=partialRectangle;connectable=0;fillColor=none;top=0;left=0;bottom=0;right=0;align=left;spacingLeft=6;overflow=hidden;" parent="iCxR82LuGbeLRVv5gzeX-243" vertex="1">
          <mxGeometry x="30" width="150" height="30" as="geometry" />
        </mxCell>
        <mxCell id="iCxR82LuGbeLRVv5gzeX-246" value="" style="shape=partialRectangle;collapsible=0;dropTarget=0;pointerEvents=0;fillColor=none;top=0;left=0;bottom=0;right=0;points=[[0,0.5],[1,0.5]];portConstraint=eastwest;" parent="iCxR82LuGbeLRVv5gzeX-236" vertex="1">
          <mxGeometry y="120" width="180" height="30" as="geometry" />
        </mxCell>
        <mxCell id="iCxR82LuGbeLRVv5gzeX-247" value="" style="shape=partialRectangle;connectable=0;fillColor=none;top=0;left=0;bottom=0;right=0;editable=1;overflow=hidden;" parent="iCxR82LuGbeLRVv5gzeX-246" vertex="1">
          <mxGeometry width="30" height="30" as="geometry" />
        </mxCell>
        <mxCell id="iCxR82LuGbeLRVv5gzeX-248" value="" style="shape=partialRectangle;connectable=0;fillColor=none;top=0;left=0;bottom=0;right=0;align=left;spacingLeft=6;overflow=hidden;" parent="iCxR82LuGbeLRVv5gzeX-246" vertex="1">
          <mxGeometry x="30" width="150" height="30" as="geometry" />
        </mxCell>
        <mxCell id="iCxR82LuGbeLRVv5gzeX-254" value="HastaSikayet" style="shape=table;startSize=30;container=1;collapsible=1;childLayout=tableLayout;fixedRows=1;rowLines=0;fontStyle=1;align=center;resizeLast=1;fontSize=13;" parent="1" vertex="1">
          <mxGeometry x="660" y="820" width="180" height="160" as="geometry" />
        </mxCell>
        <mxCell id="iCxR82LuGbeLRVv5gzeX-255" value="" style="shape=partialRectangle;collapsible=0;dropTarget=0;pointerEvents=0;fillColor=none;top=0;left=0;bottom=1;right=0;points=[[0,0.5],[1,0.5]];portConstraint=eastwest;" parent="iCxR82LuGbeLRVv5gzeX-254" vertex="1">
          <mxGeometry y="30" width="180" height="30" as="geometry" />
        </mxCell>
        <mxCell id="iCxR82LuGbeLRVv5gzeX-256" value="PK" style="shape=partialRectangle;connectable=0;fillColor=none;top=0;left=0;bottom=0;right=0;fontStyle=1;overflow=hidden;" parent="iCxR82LuGbeLRVv5gzeX-255" vertex="1">
          <mxGeometry width="30" height="30" as="geometry" />
        </mxCell>
        <mxCell id="iCxR82LuGbeLRVv5gzeX-257" value="No" style="shape=partialRectangle;connectable=0;fillColor=none;top=0;left=0;bottom=0;right=0;align=left;spacingLeft=6;fontStyle=5;overflow=hidden;" parent="iCxR82LuGbeLRVv5gzeX-255" vertex="1">
          <mxGeometry x="30" width="150" height="30" as="geometry" />
        </mxCell>
        <mxCell id="iCxR82LuGbeLRVv5gzeX-258" value="" style="shape=partialRectangle;collapsible=0;dropTarget=0;pointerEvents=0;fillColor=none;top=0;left=0;bottom=0;right=0;points=[[0,0.5],[1,0.5]];portConstraint=eastwest;" parent="iCxR82LuGbeLRVv5gzeX-254" vertex="1">
          <mxGeometry y="60" width="180" height="30" as="geometry" />
        </mxCell>
        <mxCell id="iCxR82LuGbeLRVv5gzeX-259" value="" style="shape=partialRectangle;connectable=0;fillColor=none;top=0;left=0;bottom=0;right=0;editable=1;overflow=hidden;" parent="iCxR82LuGbeLRVv5gzeX-258" vertex="1">
          <mxGeometry width="30" height="30" as="geometry" />
        </mxCell>
        <mxCell id="iCxR82LuGbeLRVv5gzeX-260" value="Rahatsızlık" style="shape=partialRectangle;connectable=0;fillColor=none;top=0;left=0;bottom=0;right=0;align=left;spacingLeft=6;overflow=hidden;" parent="iCxR82LuGbeLRVv5gzeX-258" vertex="1">
          <mxGeometry x="30" width="150" height="30" as="geometry" />
        </mxCell>
        <mxCell id="iCxR82LuGbeLRVv5gzeX-261" value="" style="shape=partialRectangle;collapsible=0;dropTarget=0;pointerEvents=0;fillColor=none;top=0;left=0;bottom=0;right=0;points=[[0,0.5],[1,0.5]];portConstraint=eastwest;" parent="iCxR82LuGbeLRVv5gzeX-254" vertex="1">
          <mxGeometry y="90" width="180" height="30" as="geometry" />
        </mxCell>
        <mxCell id="iCxR82LuGbeLRVv5gzeX-262" value="FK" style="shape=partialRectangle;connectable=0;fillColor=none;top=0;left=0;bottom=0;right=0;editable=1;overflow=hidden;" parent="iCxR82LuGbeLRVv5gzeX-261" vertex="1">
          <mxGeometry width="30" height="30" as="geometry" />
        </mxCell>
        <mxCell id="iCxR82LuGbeLRVv5gzeX-263" value="HastaNo" style="shape=partialRectangle;connectable=0;fillColor=none;top=0;left=0;bottom=0;right=0;align=left;spacingLeft=6;overflow=hidden;" parent="iCxR82LuGbeLRVv5gzeX-261" vertex="1">
          <mxGeometry x="30" width="150" height="30" as="geometry" />
        </mxCell>
        <mxCell id="iCxR82LuGbeLRVv5gzeX-264" value="" style="shape=partialRectangle;collapsible=0;dropTarget=0;pointerEvents=0;fillColor=none;top=0;left=0;bottom=0;right=0;points=[[0,0.5],[1,0.5]];portConstraint=eastwest;" parent="iCxR82LuGbeLRVv5gzeX-254" vertex="1">
          <mxGeometry y="120" width="180" height="30" as="geometry" />
        </mxCell>
        <mxCell id="iCxR82LuGbeLRVv5gzeX-265" value="" style="shape=partialRectangle;connectable=0;fillColor=none;top=0;left=0;bottom=0;right=0;editable=1;overflow=hidden;" parent="iCxR82LuGbeLRVv5gzeX-264" vertex="1">
          <mxGeometry width="30" height="30" as="geometry" />
        </mxCell>
        <mxCell id="iCxR82LuGbeLRVv5gzeX-266" value="" style="shape=partialRectangle;connectable=0;fillColor=none;top=0;left=0;bottom=0;right=0;align=left;spacingLeft=6;overflow=hidden;" parent="iCxR82LuGbeLRVv5gzeX-264" vertex="1">
          <mxGeometry x="30" width="150" height="30" as="geometry" />
        </mxCell>
        <mxCell id="iCxR82LuGbeLRVv5gzeX-270" value="FK" style="shape=partialRectangle;connectable=0;fillColor=none;top=0;left=0;bottom=0;right=0;fontStyle=1;overflow=hidden;" parent="1" vertex="1">
          <mxGeometry x="1255" y="870" width="30" height="30" as="geometry" />
        </mxCell>
        <mxCell id="iCxR82LuGbeLRVv5gzeX-271" value="FK" style="shape=partialRectangle;connectable=0;fillColor=none;top=0;left=0;bottom=0;right=0;fontStyle=1;overflow=hidden;" parent="1" vertex="1">
          <mxGeometry x="1255" y="960" width="30" height="30" as="geometry" />
        </mxCell>
        <mxCell id="iCxR82LuGbeLRVv5gzeX-272" value="FK" style="shape=partialRectangle;connectable=0;fillColor=none;top=0;left=0;bottom=0;right=0;fontStyle=1;overflow=hidden;" parent="1" vertex="1">
          <mxGeometry x="1255" y="995" width="30" height="30" as="geometry" />
        </mxCell>
        <mxCell id="iCxR82LuGbeLRVv5gzeX-317" style="edgeStyle=orthogonalEdgeStyle;rounded=0;orthogonalLoop=1;jettySize=auto;html=1;exitX=0.75;exitY=1;exitDx=0;exitDy=0;entryX=1;entryY=0.5;entryDx=0;entryDy=0;startArrow=ERoneToMany;startFill=0;endArrow=ERmandOne;endFill=0;fontSize=13;" parent="1" source="iCxR82LuGbeLRVv5gzeX-273" target="iCxR82LuGbeLRVv5gzeX-184" edge="1">
          <mxGeometry relative="1" as="geometry" />
        </mxCell>
        <mxCell id="iCxR82LuGbeLRVv5gzeX-326" value="VARDIR" style="edgeLabel;html=1;align=center;verticalAlign=middle;resizable=0;points=[];fontSize=13;" parent="iCxR82LuGbeLRVv5gzeX-317" vertex="1" connectable="0">
          <mxGeometry x="0.3035" y="5" relative="1" as="geometry">
            <mxPoint as="offset" />
          </mxGeometry>
        </mxCell>
        <mxCell id="iCxR82LuGbeLRVv5gzeX-273" value="SOFÖR" style="shape=table;startSize=30;container=1;collapsible=1;childLayout=tableLayout;fixedRows=1;rowLines=0;fontStyle=1;align=center;resizeLast=1;fontSize=13;" parent="1" vertex="1">
          <mxGeometry x="1540" y="810" width="180" height="170" as="geometry" />
        </mxCell>
        <mxCell id="iCxR82LuGbeLRVv5gzeX-274" value="" style="shape=partialRectangle;collapsible=0;dropTarget=0;pointerEvents=0;fillColor=none;top=0;left=0;bottom=1;right=0;points=[[0,0.5],[1,0.5]];portConstraint=eastwest;" parent="iCxR82LuGbeLRVv5gzeX-273" vertex="1">
          <mxGeometry y="30" width="180" height="30" as="geometry" />
        </mxCell>
        <mxCell id="iCxR82LuGbeLRVv5gzeX-275" value="PKFK" style="shape=partialRectangle;connectable=0;fillColor=none;top=0;left=0;bottom=0;right=0;fontStyle=1;overflow=hidden;" parent="iCxR82LuGbeLRVv5gzeX-274" vertex="1">
          <mxGeometry width="40" height="30" as="geometry" />
        </mxCell>
        <mxCell id="iCxR82LuGbeLRVv5gzeX-276" value="KişiNo" style="shape=partialRectangle;connectable=0;fillColor=none;top=0;left=0;bottom=0;right=0;align=left;spacingLeft=6;fontStyle=5;overflow=hidden;" parent="iCxR82LuGbeLRVv5gzeX-274" vertex="1">
          <mxGeometry x="40" width="140" height="30" as="geometry" />
        </mxCell>
        <mxCell id="iCxR82LuGbeLRVv5gzeX-277" value="" style="shape=partialRectangle;collapsible=0;dropTarget=0;pointerEvents=0;fillColor=none;top=0;left=0;bottom=0;right=0;points=[[0,0.5],[1,0.5]];portConstraint=eastwest;" parent="iCxR82LuGbeLRVv5gzeX-273" vertex="1">
          <mxGeometry y="60" width="180" height="30" as="geometry" />
        </mxCell>
        <mxCell id="iCxR82LuGbeLRVv5gzeX-278" value="" style="shape=partialRectangle;connectable=0;fillColor=none;top=0;left=0;bottom=0;right=0;editable=1;overflow=hidden;" parent="iCxR82LuGbeLRVv5gzeX-277" vertex="1">
          <mxGeometry width="40" height="30" as="geometry" />
        </mxCell>
        <mxCell id="iCxR82LuGbeLRVv5gzeX-279" value="AracNo" style="shape=partialRectangle;connectable=0;fillColor=none;top=0;left=0;bottom=0;right=0;align=left;spacingLeft=6;overflow=hidden;" parent="iCxR82LuGbeLRVv5gzeX-277" vertex="1">
          <mxGeometry x="40" width="140" height="30" as="geometry" />
        </mxCell>
        <mxCell id="iCxR82LuGbeLRVv5gzeX-280" value="" style="shape=partialRectangle;collapsible=0;dropTarget=0;pointerEvents=0;fillColor=none;top=0;left=0;bottom=0;right=0;points=[[0,0.5],[1,0.5]];portConstraint=eastwest;" parent="iCxR82LuGbeLRVv5gzeX-273" vertex="1">
          <mxGeometry y="90" width="180" height="30" as="geometry" />
        </mxCell>
        <mxCell id="iCxR82LuGbeLRVv5gzeX-281" value="FK" style="shape=partialRectangle;connectable=0;fillColor=none;top=0;left=0;bottom=0;right=0;editable=1;overflow=hidden;" parent="iCxR82LuGbeLRVv5gzeX-280" vertex="1">
          <mxGeometry width="40" height="30" as="geometry" />
        </mxCell>
        <mxCell id="iCxR82LuGbeLRVv5gzeX-282" value="CüzdanNo" style="shape=partialRectangle;connectable=0;fillColor=none;top=0;left=0;bottom=0;right=0;align=left;spacingLeft=6;overflow=hidden;" parent="iCxR82LuGbeLRVv5gzeX-280" vertex="1">
          <mxGeometry x="40" width="140" height="30" as="geometry" />
        </mxCell>
        <mxCell id="iCxR82LuGbeLRVv5gzeX-283" value="" style="shape=partialRectangle;collapsible=0;dropTarget=0;pointerEvents=0;fillColor=none;top=0;left=0;bottom=0;right=0;points=[[0,0.5],[1,0.5]];portConstraint=eastwest;" parent="iCxR82LuGbeLRVv5gzeX-273" vertex="1">
          <mxGeometry y="120" width="180" height="30" as="geometry" />
        </mxCell>
        <mxCell id="iCxR82LuGbeLRVv5gzeX-284" value="FK" style="shape=partialRectangle;connectable=0;fillColor=none;top=0;left=0;bottom=0;right=0;editable=1;overflow=hidden;" parent="iCxR82LuGbeLRVv5gzeX-283" vertex="1">
          <mxGeometry width="40" height="30" as="geometry" />
        </mxCell>
        <mxCell id="iCxR82LuGbeLRVv5gzeX-285" value="TakvimNo" style="shape=partialRectangle;connectable=0;fillColor=none;top=0;left=0;bottom=0;right=0;align=left;spacingLeft=6;overflow=hidden;" parent="iCxR82LuGbeLRVv5gzeX-283" vertex="1">
          <mxGeometry x="40" width="140" height="30" as="geometry" />
        </mxCell>
        <mxCell id="iCxR82LuGbeLRVv5gzeX-309" value="BAKAR" style="edgeStyle=orthogonalEdgeStyle;rounded=0;orthogonalLoop=1;jettySize=auto;html=1;exitX=0.25;exitY=1;exitDx=0;exitDy=0;entryX=0.5;entryY=0;entryDx=0;entryDy=0;startArrow=ERmandOne;startFill=0;endArrow=ERoneToMany;endFill=0;fontSize=13;" parent="1" source="iCxR82LuGbeLRVv5gzeX-107" target="iCxR82LuGbeLRVv5gzeX-93" edge="1">
          <mxGeometry relative="1" as="geometry" />
        </mxCell>
        <mxCell id="iCxR82LuGbeLRVv5gzeX-310" value="VARDIR" style="edgeStyle=orthogonalEdgeStyle;rounded=0;orthogonalLoop=1;jettySize=auto;html=1;exitX=1;exitY=0.75;exitDx=0;exitDy=0;entryX=0.25;entryY=0;entryDx=0;entryDy=0;startArrow=ERoneToMany;startFill=0;endArrow=ERmandOne;endFill=0;fontSize=13;" parent="1" source="iCxR82LuGbeLRVv5gzeX-107" target="iCxR82LuGbeLRVv5gzeX-127" edge="1">
          <mxGeometry relative="1" as="geometry" />
        </mxCell>
        <mxCell id="iCxR82LuGbeLRVv5gzeX-316" style="edgeStyle=orthogonalEdgeStyle;rounded=0;orthogonalLoop=1;jettySize=auto;html=1;exitX=0.5;exitY=1;exitDx=0;exitDy=0;entryX=0;entryY=0.5;entryDx=0;entryDy=0;startArrow=ERoneToMany;startFill=0;endArrow=ERmandOne;endFill=0;fontSize=13;" parent="1" source="iCxR82LuGbeLRVv5gzeX-107" target="iCxR82LuGbeLRVv5gzeX-184" edge="1">
          <mxGeometry relative="1" as="geometry" />
        </mxCell>
        <mxCell id="iCxR82LuGbeLRVv5gzeX-327" value="VARDIR" style="edgeLabel;html=1;align=center;verticalAlign=middle;resizable=0;points=[];fontSize=13;" parent="iCxR82LuGbeLRVv5gzeX-316" vertex="1" connectable="0">
          <mxGeometry x="0.1901" y="-2" relative="1" as="geometry">
            <mxPoint as="offset" />
          </mxGeometry>
        </mxCell>
        <mxCell id="iCxR82LuGbeLRVv5gzeX-318" style="edgeStyle=orthogonalEdgeStyle;rounded=0;orthogonalLoop=1;jettySize=auto;html=1;exitX=0.75;exitY=1;exitDx=0;exitDy=0;startArrow=ERoneToMany;startFill=0;endArrow=ERmandOne;endFill=0;fontSize=13;" parent="1" source="iCxR82LuGbeLRVv5gzeX-107" target="iCxR82LuGbeLRVv5gzeX-140" edge="1">
          <mxGeometry relative="1" as="geometry">
            <Array as="points">
              <mxPoint x="1390" y="1080" />
              <mxPoint x="1900" y="1080" />
            </Array>
          </mxGeometry>
        </mxCell>
        <mxCell id="iCxR82LuGbeLRVv5gzeX-325" value="ALIR" style="edgeLabel;html=1;align=center;verticalAlign=middle;resizable=0;points=[];fontSize=13;" parent="iCxR82LuGbeLRVv5gzeX-318" vertex="1" connectable="0">
          <mxGeometry x="0.2593" y="-5" relative="1" as="geometry">
            <mxPoint as="offset" />
          </mxGeometry>
        </mxCell>
        <mxCell id="iCxR82LuGbeLRVv5gzeX-333" style="edgeStyle=orthogonalEdgeStyle;rounded=0;orthogonalLoop=1;jettySize=auto;html=1;exitX=0;exitY=0.75;exitDx=0;exitDy=0;startArrow=ERmandOne;startFill=0;endArrow=ERoneToMany;endFill=0;fontSize=13;" parent="1" source="iCxR82LuGbeLRVv5gzeX-107" target="iCxR82LuGbeLRVv5gzeX-200" edge="1">
          <mxGeometry relative="1" as="geometry">
            <Array as="points">
              <mxPoint x="1230" y="995" />
              <mxPoint x="1230" y="1080" />
              <mxPoint x="1090" y="1080" />
              <mxPoint x="1090" y="1530" />
            </Array>
          </mxGeometry>
        </mxCell>
        <mxCell id="iCxR82LuGbeLRVv5gzeX-107" value="DOKTOR" style="shape=table;startSize=30;container=1;collapsible=1;childLayout=tableLayout;fixedRows=1;rowLines=0;fontStyle=1;align=center;resizeLast=1;fontSize=13;" parent="1" vertex="1">
          <mxGeometry x="1255" y="800" width="180" height="260.00000000000045" as="geometry" />
        </mxCell>
        <mxCell id="iCxR82LuGbeLRVv5gzeX-108" value="" style="shape=partialRectangle;collapsible=0;dropTarget=0;pointerEvents=0;fillColor=none;top=0;left=0;bottom=1;right=0;points=[[0,0.5],[1,0.5]];portConstraint=eastwest;" parent="iCxR82LuGbeLRVv5gzeX-107" vertex="1">
          <mxGeometry y="30" width="180" height="30" as="geometry" />
        </mxCell>
        <mxCell id="iCxR82LuGbeLRVv5gzeX-109" value="PKFK" style="shape=partialRectangle;connectable=0;fillColor=none;top=0;left=0;bottom=0;right=0;fontStyle=1;overflow=hidden;" parent="iCxR82LuGbeLRVv5gzeX-108" vertex="1">
          <mxGeometry width="35" height="30" as="geometry" />
        </mxCell>
        <mxCell id="iCxR82LuGbeLRVv5gzeX-110" value="KişiNo" style="shape=partialRectangle;connectable=0;fillColor=none;top=0;left=0;bottom=0;right=0;align=left;spacingLeft=6;fontStyle=5;overflow=hidden;" parent="iCxR82LuGbeLRVv5gzeX-108" vertex="1">
          <mxGeometry x="35" width="145" height="30" as="geometry" />
        </mxCell>
        <mxCell id="iCxR82LuGbeLRVv5gzeX-111" value="" style="shape=partialRectangle;collapsible=0;dropTarget=0;pointerEvents=0;fillColor=none;top=0;left=0;bottom=0;right=0;points=[[0,0.5],[1,0.5]];portConstraint=eastwest;" parent="iCxR82LuGbeLRVv5gzeX-107" vertex="1">
          <mxGeometry y="60" width="180" height="30" as="geometry" />
        </mxCell>
        <mxCell id="iCxR82LuGbeLRVv5gzeX-112" value="" style="shape=partialRectangle;connectable=0;fillColor=none;top=0;left=0;bottom=0;right=0;editable=1;overflow=hidden;" parent="iCxR82LuGbeLRVv5gzeX-111" vertex="1">
          <mxGeometry width="35" height="30" as="geometry" />
        </mxCell>
        <mxCell id="iCxR82LuGbeLRVv5gzeX-113" value="" style="shape=partialRectangle;connectable=0;fillColor=none;top=0;left=0;bottom=0;right=0;align=left;spacingLeft=6;overflow=hidden;" parent="iCxR82LuGbeLRVv5gzeX-111" vertex="1">
          <mxGeometry x="35" width="145" height="30" as="geometry" />
        </mxCell>
        <mxCell id="iCxR82LuGbeLRVv5gzeX-114" value="" style="shape=partialRectangle;collapsible=0;dropTarget=0;pointerEvents=0;fillColor=none;top=0;left=0;bottom=0;right=0;points=[[0,0.5],[1,0.5]];portConstraint=eastwest;" parent="iCxR82LuGbeLRVv5gzeX-107" vertex="1">
          <mxGeometry y="90" width="180" height="30" as="geometry" />
        </mxCell>
        <mxCell id="iCxR82LuGbeLRVv5gzeX-115" value="" style="shape=partialRectangle;connectable=0;fillColor=none;top=0;left=0;bottom=0;right=0;editable=1;overflow=hidden;" parent="iCxR82LuGbeLRVv5gzeX-114" vertex="1">
          <mxGeometry width="35" height="30" as="geometry" />
        </mxCell>
        <mxCell id="iCxR82LuGbeLRVv5gzeX-116" value="" style="shape=partialRectangle;connectable=0;fillColor=none;top=0;left=0;bottom=0;right=0;align=left;spacingLeft=6;overflow=hidden;" parent="iCxR82LuGbeLRVv5gzeX-114" vertex="1">
          <mxGeometry x="35" width="145" height="30" as="geometry" />
        </mxCell>
        <mxCell id="iCxR82LuGbeLRVv5gzeX-117" value="" style="shape=partialRectangle;collapsible=0;dropTarget=0;pointerEvents=0;fillColor=none;top=0;left=0;bottom=0;right=0;points=[[0,0.5],[1,0.5]];portConstraint=eastwest;" parent="iCxR82LuGbeLRVv5gzeX-107" vertex="1">
          <mxGeometry y="120" width="180" height="30" as="geometry" />
        </mxCell>
        <mxCell id="iCxR82LuGbeLRVv5gzeX-118" value="FK" style="shape=partialRectangle;connectable=0;fillColor=none;top=0;left=0;bottom=0;right=0;editable=1;overflow=hidden;" parent="iCxR82LuGbeLRVv5gzeX-117" vertex="1">
          <mxGeometry width="35" height="30" as="geometry" />
        </mxCell>
        <mxCell id="iCxR82LuGbeLRVv5gzeX-119" value="AlanNo" style="shape=partialRectangle;connectable=0;fillColor=none;top=0;left=0;bottom=0;right=0;align=left;spacingLeft=6;overflow=hidden;" parent="iCxR82LuGbeLRVv5gzeX-117" vertex="1">
          <mxGeometry x="35" width="145" height="30" as="geometry" />
        </mxCell>
        <mxCell id="iCxR82LuGbeLRVv5gzeX-288" value="KİŞİ" style="shape=table;startSize=30;container=1;collapsible=1;childLayout=tableLayout;fixedRows=1;rowLines=0;fontStyle=1;align=center;resizeLast=1;fontSize=13;" parent="1" vertex="1">
          <mxGeometry x="1262.5" y="400" width="180" height="210" as="geometry" />
        </mxCell>
        <mxCell id="iCxR82LuGbeLRVv5gzeX-289" value="" style="shape=partialRectangle;collapsible=0;dropTarget=0;pointerEvents=0;fillColor=none;top=0;left=0;bottom=1;right=0;points=[[0,0.5],[1,0.5]];portConstraint=eastwest;" parent="iCxR82LuGbeLRVv5gzeX-288" vertex="1">
          <mxGeometry y="30" width="180" height="30" as="geometry" />
        </mxCell>
        <mxCell id="iCxR82LuGbeLRVv5gzeX-290" value="PK" style="shape=partialRectangle;connectable=0;fillColor=none;top=0;left=0;bottom=0;right=0;fontStyle=1;overflow=hidden;" parent="iCxR82LuGbeLRVv5gzeX-289" vertex="1">
          <mxGeometry width="30" height="30" as="geometry" />
        </mxCell>
        <mxCell id="iCxR82LuGbeLRVv5gzeX-291" value="KişiNo" style="shape=partialRectangle;connectable=0;fillColor=none;top=0;left=0;bottom=0;right=0;align=left;spacingLeft=6;fontStyle=5;overflow=hidden;" parent="iCxR82LuGbeLRVv5gzeX-289" vertex="1">
          <mxGeometry x="30" width="150" height="30" as="geometry" />
        </mxCell>
        <mxCell id="iCxR82LuGbeLRVv5gzeX-292" value="" style="shape=partialRectangle;collapsible=0;dropTarget=0;pointerEvents=0;fillColor=none;top=0;left=0;bottom=0;right=0;points=[[0,0.5],[1,0.5]];portConstraint=eastwest;" parent="iCxR82LuGbeLRVv5gzeX-288" vertex="1">
          <mxGeometry y="60" width="180" height="30" as="geometry" />
        </mxCell>
        <mxCell id="iCxR82LuGbeLRVv5gzeX-293" value="" style="shape=partialRectangle;connectable=0;fillColor=none;top=0;left=0;bottom=0;right=0;editable=1;overflow=hidden;" parent="iCxR82LuGbeLRVv5gzeX-292" vertex="1">
          <mxGeometry width="30" height="30" as="geometry" />
        </mxCell>
        <mxCell id="iCxR82LuGbeLRVv5gzeX-294" value="Ad" style="shape=partialRectangle;connectable=0;fillColor=none;top=0;left=0;bottom=0;right=0;align=left;spacingLeft=6;overflow=hidden;" parent="iCxR82LuGbeLRVv5gzeX-292" vertex="1">
          <mxGeometry x="30" width="150" height="30" as="geometry" />
        </mxCell>
        <mxCell id="iCxR82LuGbeLRVv5gzeX-295" value="" style="shape=partialRectangle;collapsible=0;dropTarget=0;pointerEvents=0;fillColor=none;top=0;left=0;bottom=0;right=0;points=[[0,0.5],[1,0.5]];portConstraint=eastwest;" parent="iCxR82LuGbeLRVv5gzeX-288" vertex="1">
          <mxGeometry y="90" width="180" height="40" as="geometry" />
        </mxCell>
        <mxCell id="iCxR82LuGbeLRVv5gzeX-296" value="" style="shape=partialRectangle;connectable=0;fillColor=none;top=0;left=0;bottom=0;right=0;editable=1;overflow=hidden;" parent="iCxR82LuGbeLRVv5gzeX-295" vertex="1">
          <mxGeometry width="30" height="40" as="geometry" />
        </mxCell>
        <mxCell id="iCxR82LuGbeLRVv5gzeX-297" value="Soyad" style="shape=partialRectangle;connectable=0;fillColor=none;top=0;left=0;bottom=0;right=0;align=left;spacingLeft=6;overflow=hidden;" parent="iCxR82LuGbeLRVv5gzeX-295" vertex="1">
          <mxGeometry x="30" width="150" height="40" as="geometry" />
        </mxCell>
        <mxCell id="iCxR82LuGbeLRVv5gzeX-298" value="" style="shape=partialRectangle;collapsible=0;dropTarget=0;pointerEvents=0;fillColor=none;top=0;left=0;bottom=0;right=0;points=[[0,0.5],[1,0.5]];portConstraint=eastwest;" parent="iCxR82LuGbeLRVv5gzeX-288" vertex="1">
          <mxGeometry y="130" width="180" height="30" as="geometry" />
        </mxCell>
        <mxCell id="iCxR82LuGbeLRVv5gzeX-299" value="" style="shape=partialRectangle;connectable=0;fillColor=none;top=0;left=0;bottom=0;right=0;editable=1;overflow=hidden;" parent="iCxR82LuGbeLRVv5gzeX-298" vertex="1">
          <mxGeometry width="30" height="30" as="geometry" />
        </mxCell>
        <mxCell id="iCxR82LuGbeLRVv5gzeX-300" value="KisiTürü" style="shape=partialRectangle;connectable=0;fillColor=none;top=0;left=0;bottom=0;right=0;align=left;spacingLeft=6;overflow=hidden;" parent="iCxR82LuGbeLRVv5gzeX-298" vertex="1">
          <mxGeometry x="30" width="150" height="30" as="geometry" />
        </mxCell>
        <mxCell id="iCxR82LuGbeLRVv5gzeX-301" value="" style="strokeWidth=2;html=1;shape=mxgraph.flowchart.annotation_2;align=left;labelPosition=right;pointerEvents=1;fontSize=13;rotation=90;" parent="1" vertex="1">
          <mxGeometry x="1243.13" y="416.88" width="203.75" height="580" as="geometry" />
        </mxCell>
        <mxCell id="iCxR82LuGbeLRVv5gzeX-302" style="edgeStyle=orthogonalEdgeStyle;rounded=0;orthogonalLoop=1;jettySize=auto;html=1;entryX=0.454;entryY=0.5;entryDx=0;entryDy=0;entryPerimeter=0;startArrow=none;startFill=0;endArrow=none;endFill=0;fontSize=13;" parent="1" target="iCxR82LuGbeLRVv5gzeX-301" edge="1">
          <mxGeometry relative="1" as="geometry">
            <mxPoint x="1345" y="800" as="sourcePoint" />
            <Array as="points">
              <mxPoint x="1345" y="730" />
              <mxPoint x="1345" y="730" />
            </Array>
          </mxGeometry>
        </mxCell>
        <mxCell id="iCxR82LuGbeLRVv5gzeX-304" value="" style="shape=link;html=1;rounded=0;startArrow=none;startFill=0;endArrow=none;endFill=0;fontSize=13;" parent="1" edge="1">
          <mxGeometry relative="1" as="geometry">
            <mxPoint x="1265" y="670" as="sourcePoint" />
            <mxPoint x="1425" y="670" as="targetPoint" />
            <Array as="points">
              <mxPoint x="1365" y="670" />
            </Array>
          </mxGeometry>
        </mxCell>
        <mxCell id="iCxR82LuGbeLRVv5gzeX-307" value="D" style="ellipse;whiteSpace=wrap;html=1;fontSize=13;" parent="1" vertex="1">
          <mxGeometry x="1320" y="620" width="50" height="30" as="geometry" />
        </mxCell>
        <mxCell id="iCxR82LuGbeLRVv5gzeX-311" style="edgeStyle=orthogonalEdgeStyle;rounded=0;orthogonalLoop=1;jettySize=auto;html=1;exitX=0;exitY=0.5;exitDx=0;exitDy=0;entryX=0.75;entryY=0;entryDx=0;entryDy=0;startArrow=ERmandOne;startFill=0;endArrow=ERmandOne;endFill=0;fontSize=13;" parent="1" source="iCxR82LuGbeLRVv5gzeX-23" target="iCxR82LuGbeLRVv5gzeX-76" edge="1">
          <mxGeometry relative="1" as="geometry" />
        </mxCell>
        <mxCell id="iCxR82LuGbeLRVv5gzeX-328" value="YAZAR" style="edgeLabel;html=1;align=center;verticalAlign=middle;resizable=0;points=[];fontSize=13;" parent="iCxR82LuGbeLRVv5gzeX-311" vertex="1" connectable="0">
          <mxGeometry x="0.3981" y="-2" relative="1" as="geometry">
            <mxPoint as="offset" />
          </mxGeometry>
        </mxCell>
        <mxCell id="iCxR82LuGbeLRVv5gzeX-312" value="BELİRTİR" style="edgeStyle=orthogonalEdgeStyle;rounded=0;orthogonalLoop=1;jettySize=auto;html=1;exitX=0;exitY=0.5;exitDx=0;exitDy=0;entryX=1;entryY=0.5;entryDx=0;entryDy=0;startArrow=ERoneToMany;startFill=0;endArrow=ERmandOne;endFill=0;fontSize=13;" parent="1" source="iCxR82LuGbeLRVv5gzeX-14" target="iCxR82LuGbeLRVv5gzeX-261" edge="1">
          <mxGeometry relative="1" as="geometry" />
        </mxCell>
        <mxCell id="iCxR82LuGbeLRVv5gzeX-314" style="edgeStyle=orthogonalEdgeStyle;rounded=0;orthogonalLoop=1;jettySize=auto;html=1;exitX=0;exitY=0.5;exitDx=0;exitDy=0;entryX=1;entryY=0.5;entryDx=0;entryDy=0;startArrow=ERmandOne;startFill=0;endArrow=ERoneToMany;endFill=0;fontSize=13;" parent="1" source="iCxR82LuGbeLRVv5gzeX-114" target="iCxR82LuGbeLRVv5gzeX-34" edge="1">
          <mxGeometry relative="1" as="geometry">
            <Array as="points">
              <mxPoint x="1240" y="905" />
              <mxPoint x="1240" y="660" />
              <mxPoint x="1063" y="660" />
              <mxPoint x="1063" y="635" />
            </Array>
          </mxGeometry>
        </mxCell>
        <mxCell id="iCxR82LuGbeLRVv5gzeX-329" value="OKUR-YAZAR" style="edgeLabel;html=1;align=center;verticalAlign=middle;resizable=0;points=[];fontSize=13;" parent="iCxR82LuGbeLRVv5gzeX-314" vertex="1" connectable="0">
          <mxGeometry x="0.1399" y="-2" relative="1" as="geometry">
            <mxPoint as="offset" />
          </mxGeometry>
        </mxCell>
        <mxCell id="iCxR82LuGbeLRVv5gzeX-319" style="edgeStyle=orthogonalEdgeStyle;rounded=0;orthogonalLoop=1;jettySize=auto;html=1;exitX=1;exitY=0.5;exitDx=0;exitDy=0;entryX=0.75;entryY=0;entryDx=0;entryDy=0;startArrow=ERoneToMany;startFill=0;endArrow=ERmandOne;endFill=0;fontSize=13;" parent="1" source="iCxR82LuGbeLRVv5gzeX-283" target="iCxR82LuGbeLRVv5gzeX-140" edge="1">
          <mxGeometry relative="1" as="geometry" />
        </mxCell>
        <mxCell id="iCxR82LuGbeLRVv5gzeX-324" value="ALIR" style="edgeLabel;html=1;align=center;verticalAlign=middle;resizable=0;points=[];fontSize=13;" parent="iCxR82LuGbeLRVv5gzeX-319" vertex="1" connectable="0">
          <mxGeometry x="-0.4058" y="2" relative="1" as="geometry">
            <mxPoint as="offset" />
          </mxGeometry>
        </mxCell>
        <mxCell id="iCxR82LuGbeLRVv5gzeX-320" style="edgeStyle=orthogonalEdgeStyle;rounded=0;orthogonalLoop=1;jettySize=auto;html=1;exitX=1;exitY=0.5;exitDx=0;exitDy=0;entryX=0.75;entryY=0;entryDx=0;entryDy=0;startArrow=ERmandOne;startFill=0;endArrow=ERoneToMany;endFill=0;fontSize=13;" parent="1" source="iCxR82LuGbeLRVv5gzeX-277" target="iCxR82LuGbeLRVv5gzeX-155" edge="1">
          <mxGeometry relative="1" as="geometry" />
        </mxCell>
        <mxCell id="iCxR82LuGbeLRVv5gzeX-323" value="SÜRER" style="edgeLabel;html=1;align=center;verticalAlign=middle;resizable=0;points=[];fontSize=13;" parent="iCxR82LuGbeLRVv5gzeX-320" vertex="1" connectable="0">
          <mxGeometry x="-0.616" y="2" relative="1" as="geometry">
            <mxPoint as="offset" />
          </mxGeometry>
        </mxCell>
        <mxCell id="iCxR82LuGbeLRVv5gzeX-321" style="edgeStyle=orthogonalEdgeStyle;rounded=0;orthogonalLoop=1;jettySize=auto;html=1;exitX=1;exitY=0.5;exitDx=0;exitDy=0;entryX=0.25;entryY=0;entryDx=0;entryDy=0;startArrow=ERoneToMany;startFill=0;endArrow=ERoneToMany;endFill=0;fontSize=13;" parent="1" source="iCxR82LuGbeLRVv5gzeX-117" target="iCxR82LuGbeLRVv5gzeX-155" edge="1">
          <mxGeometry relative="1" as="geometry">
            <Array as="points">
              <mxPoint x="1450" y="935" />
              <mxPoint x="1450" y="990" />
              <mxPoint x="2065" y="990" />
            </Array>
          </mxGeometry>
        </mxCell>
        <mxCell id="iCxR82LuGbeLRVv5gzeX-322" value="BİNER" style="edgeLabel;html=1;align=center;verticalAlign=middle;resizable=0;points=[];fontSize=13;" parent="iCxR82LuGbeLRVv5gzeX-321" vertex="1" connectable="0">
          <mxGeometry x="-0.6297" y="-2" relative="1" as="geometry">
            <mxPoint as="offset" />
          </mxGeometry>
        </mxCell>
        <mxCell id="iCxR82LuGbeLRVv5gzeX-331" style="edgeStyle=orthogonalEdgeStyle;rounded=0;orthogonalLoop=1;jettySize=auto;html=1;exitX=0;exitY=0.5;exitDx=0;exitDy=0;entryX=1;entryY=0.5;entryDx=0;entryDy=0;startArrow=ERzeroToMany;startFill=1;endArrow=ERmandOne;endFill=0;fontSize=13;" parent="1" source="iCxR82LuGbeLRVv5gzeX-227" target="iCxR82LuGbeLRVv5gzeX-240" edge="1">
          <mxGeometry relative="1" as="geometry" />
        </mxCell>
        <mxCell id="iCxR82LuGbeLRVv5gzeX-332" style="edgeStyle=orthogonalEdgeStyle;rounded=0;orthogonalLoop=1;jettySize=auto;html=1;exitX=1;exitY=0.5;exitDx=0;exitDy=0;entryX=0.75;entryY=1;entryDx=0;entryDy=0;startArrow=ERmandOne;startFill=0;endArrow=ERzeroToMany;endFill=1;fontSize=13;" parent="1" source="iCxR82LuGbeLRVv5gzeX-111" target="iCxR82LuGbeLRVv5gzeX-223" edge="1">
          <mxGeometry relative="1" as="geometry" />
        </mxCell>
        <mxCell id="iCxR82LuGbeLRVv5gzeX-349" style="edgeStyle=orthogonalEdgeStyle;rounded=0;orthogonalLoop=1;jettySize=auto;html=1;exitX=0;exitY=0.5;exitDx=0;exitDy=0;startArrow=ERmandOne;startFill=0;endArrow=ERmandOne;endFill=0;fontSize=13;entryX=0;entryY=1;entryDx=0;entryDy=0;" parent="1" source="iCxR82LuGbeLRVv5gzeX-65" target="iCxR82LuGbeLRVv5gzeX-13" edge="1">
          <mxGeometry relative="1" as="geometry">
            <mxPoint x="1000" y="1060" as="targetPoint" />
            <Array as="points">
              <mxPoint x="1000" y="1755" />
              <mxPoint x="1000" y="1070" />
              <mxPoint x="980" y="1070" />
            </Array>
          </mxGeometry>
        </mxCell>
        <mxCell id="iCxR82LuGbeLRVv5gzeX-351" value="ÜCRET" style="shape=table;startSize=30;container=1;collapsible=1;childLayout=tableLayout;fixedRows=1;rowLines=0;fontStyle=1;align=center;resizeLast=1;fontSize=13;" parent="1" vertex="1">
          <mxGeometry x="420" y="1010" width="180" height="230" as="geometry" />
        </mxCell>
        <mxCell id="iCxR82LuGbeLRVv5gzeX-352" value="" style="shape=partialRectangle;collapsible=0;dropTarget=0;pointerEvents=0;fillColor=none;top=0;left=0;bottom=1;right=0;points=[[0,0.5],[1,0.5]];portConstraint=eastwest;" parent="iCxR82LuGbeLRVv5gzeX-351" vertex="1">
          <mxGeometry y="30" width="180" height="30" as="geometry" />
        </mxCell>
        <mxCell id="iCxR82LuGbeLRVv5gzeX-353" value="PK" style="shape=partialRectangle;connectable=0;fillColor=none;top=0;left=0;bottom=0;right=0;fontStyle=1;overflow=hidden;" parent="iCxR82LuGbeLRVv5gzeX-352" vertex="1">
          <mxGeometry width="30" height="30" as="geometry" />
        </mxCell>
        <mxCell id="iCxR82LuGbeLRVv5gzeX-354" value="No" style="shape=partialRectangle;connectable=0;fillColor=none;top=0;left=0;bottom=0;right=0;align=left;spacingLeft=6;fontStyle=5;overflow=hidden;" parent="iCxR82LuGbeLRVv5gzeX-352" vertex="1">
          <mxGeometry x="30" width="150" height="30" as="geometry" />
        </mxCell>
        <mxCell id="iCxR82LuGbeLRVv5gzeX-355" value="" style="shape=partialRectangle;collapsible=0;dropTarget=0;pointerEvents=0;fillColor=none;top=0;left=0;bottom=0;right=0;points=[[0,0.5],[1,0.5]];portConstraint=eastwest;" parent="iCxR82LuGbeLRVv5gzeX-351" vertex="1">
          <mxGeometry y="60" width="180" height="30" as="geometry" />
        </mxCell>
        <mxCell id="iCxR82LuGbeLRVv5gzeX-356" value="" style="shape=partialRectangle;connectable=0;fillColor=none;top=0;left=0;bottom=0;right=0;editable=1;overflow=hidden;" parent="iCxR82LuGbeLRVv5gzeX-355" vertex="1">
          <mxGeometry width="30" height="30" as="geometry" />
        </mxCell>
        <mxCell id="iCxR82LuGbeLRVv5gzeX-357" value="YatılanGün" style="shape=partialRectangle;connectable=0;fillColor=none;top=0;left=0;bottom=0;right=0;align=left;spacingLeft=6;overflow=hidden;" parent="iCxR82LuGbeLRVv5gzeX-355" vertex="1">
          <mxGeometry x="30" width="150" height="30" as="geometry" />
        </mxCell>
        <mxCell id="iCxR82LuGbeLRVv5gzeX-358" value="" style="shape=partialRectangle;collapsible=0;dropTarget=0;pointerEvents=0;fillColor=none;top=0;left=0;bottom=0;right=0;points=[[0,0.5],[1,0.5]];portConstraint=eastwest;" parent="iCxR82LuGbeLRVv5gzeX-351" vertex="1">
          <mxGeometry y="90" width="180" height="30" as="geometry" />
        </mxCell>
        <mxCell id="iCxR82LuGbeLRVv5gzeX-359" value="" style="shape=partialRectangle;connectable=0;fillColor=none;top=0;left=0;bottom=0;right=0;editable=1;overflow=hidden;" parent="iCxR82LuGbeLRVv5gzeX-358" vertex="1">
          <mxGeometry width="30" height="30" as="geometry" />
        </mxCell>
        <mxCell id="iCxR82LuGbeLRVv5gzeX-360" value="AlınanTedavi" style="shape=partialRectangle;connectable=0;fillColor=none;top=0;left=0;bottom=0;right=0;align=left;spacingLeft=6;overflow=hidden;" parent="iCxR82LuGbeLRVv5gzeX-358" vertex="1">
          <mxGeometry x="30" width="150" height="30" as="geometry" />
        </mxCell>
        <mxCell id="iCxR82LuGbeLRVv5gzeX-361" value="" style="shape=partialRectangle;collapsible=0;dropTarget=0;pointerEvents=0;fillColor=none;top=0;left=0;bottom=0;right=0;points=[[0,0.5],[1,0.5]];portConstraint=eastwest;" parent="iCxR82LuGbeLRVv5gzeX-351" vertex="1">
          <mxGeometry y="120" width="180" height="30" as="geometry" />
        </mxCell>
        <mxCell id="iCxR82LuGbeLRVv5gzeX-362" value="" style="shape=partialRectangle;connectable=0;fillColor=none;top=0;left=0;bottom=0;right=0;editable=1;overflow=hidden;" parent="iCxR82LuGbeLRVv5gzeX-361" vertex="1">
          <mxGeometry width="30" height="30" as="geometry" />
        </mxCell>
        <mxCell id="iCxR82LuGbeLRVv5gzeX-363" value="ÖdenecekTutar" style="shape=partialRectangle;connectable=0;fillColor=none;top=0;left=0;bottom=0;right=0;align=left;spacingLeft=6;overflow=hidden;" parent="iCxR82LuGbeLRVv5gzeX-361" vertex="1">
          <mxGeometry x="30" width="150" height="30" as="geometry" />
        </mxCell>
        <mxCell id="iCxR82LuGbeLRVv5gzeX-364" value="ÖdemeŞekli" style="shape=partialRectangle;connectable=0;fillColor=none;top=0;left=0;bottom=0;right=0;align=left;spacingLeft=6;overflow=hidden;" parent="1" vertex="1">
          <mxGeometry x="450" y="1165" width="150" height="30" as="geometry" />
        </mxCell>
        <mxCell id="iCxR82LuGbeLRVv5gzeX-365" style="edgeStyle=orthogonalEdgeStyle;rounded=0;orthogonalLoop=1;jettySize=auto;html=1;exitX=1;exitY=0.5;exitDx=0;exitDy=0;entryX=0;entryY=-0.15;entryDx=0;entryDy=0;entryPerimeter=0;startArrow=ERmandOne;startFill=0;endArrow=ERzeroToMany;endFill=1;fontSize=13;" parent="1" source="iCxR82LuGbeLRVv5gzeX-352" target="iCxR82LuGbeLRVv5gzeX-29" edge="1">
          <mxGeometry relative="1" as="geometry" />
        </mxCell>
        <mxCell id="iCxR82LuGbeLRVv5gzeX-366" value="HastaNo" style="shape=partialRectangle;connectable=0;fillColor=none;top=0;left=0;bottom=0;right=0;align=left;spacingLeft=6;overflow=hidden;" parent="1" vertex="1">
          <mxGeometry x="450" y="1195" width="150" height="30" as="geometry" />
        </mxCell>
        <mxCell id="iCxR82LuGbeLRVv5gzeX-367" value="FK" style="text;html=1;align=center;verticalAlign=middle;resizable=0;points=[];autosize=1;fontSize=13;" parent="1" vertex="1">
          <mxGeometry x="420" y="1200" width="30" height="20" as="geometry" />
        </mxCell>
        <mxCell id="5ZjnstfDlBr8CtF7rMbR-2" value="Taburcu" style="shape=table;startSize=30;container=1;collapsible=1;childLayout=tableLayout;fixedRows=1;rowLines=0;fontStyle=1;align=center;resizeLast=1;" vertex="1" parent="1">
          <mxGeometry x="435" y="1340" width="180" height="155" as="geometry" />
        </mxCell>
        <mxCell id="5ZjnstfDlBr8CtF7rMbR-3" value="" style="shape=partialRectangle;collapsible=0;dropTarget=0;pointerEvents=0;fillColor=none;top=0;left=0;bottom=1;right=0;points=[[0,0.5],[1,0.5]];portConstraint=eastwest;" vertex="1" parent="5ZjnstfDlBr8CtF7rMbR-2">
          <mxGeometry y="30" width="180" height="30" as="geometry" />
        </mxCell>
        <mxCell id="5ZjnstfDlBr8CtF7rMbR-4" value="PK" style="shape=partialRectangle;connectable=0;fillColor=none;top=0;left=0;bottom=0;right=0;fontStyle=1;overflow=hidden;" vertex="1" parent="5ZjnstfDlBr8CtF7rMbR-3">
          <mxGeometry width="30" height="30" as="geometry" />
        </mxCell>
        <mxCell id="5ZjnstfDlBr8CtF7rMbR-5" value="TaburcuNo" style="shape=partialRectangle;connectable=0;fillColor=none;top=0;left=0;bottom=0;right=0;align=left;spacingLeft=6;fontStyle=5;overflow=hidden;" vertex="1" parent="5ZjnstfDlBr8CtF7rMbR-3">
          <mxGeometry x="30" width="150" height="30" as="geometry" />
        </mxCell>
        <mxCell id="5ZjnstfDlBr8CtF7rMbR-6" value="" style="shape=partialRectangle;collapsible=0;dropTarget=0;pointerEvents=0;fillColor=none;top=0;left=0;bottom=0;right=0;points=[[0,0.5],[1,0.5]];portConstraint=eastwest;" vertex="1" parent="5ZjnstfDlBr8CtF7rMbR-2">
          <mxGeometry y="60" width="180" height="25" as="geometry" />
        </mxCell>
        <mxCell id="5ZjnstfDlBr8CtF7rMbR-7" value="Fk" style="shape=partialRectangle;connectable=0;fillColor=none;top=0;left=0;bottom=0;right=0;editable=1;overflow=hidden;" vertex="1" parent="5ZjnstfDlBr8CtF7rMbR-6">
          <mxGeometry width="30" height="25" as="geometry" />
        </mxCell>
        <mxCell id="5ZjnstfDlBr8CtF7rMbR-8" value="HastaNo" style="shape=partialRectangle;connectable=0;fillColor=none;top=0;left=0;bottom=0;right=0;align=left;spacingLeft=6;overflow=hidden;" vertex="1" parent="5ZjnstfDlBr8CtF7rMbR-6">
          <mxGeometry x="30" width="150" height="25" as="geometry" />
        </mxCell>
        <mxCell id="5ZjnstfDlBr8CtF7rMbR-9" value="" style="shape=partialRectangle;collapsible=0;dropTarget=0;pointerEvents=0;fillColor=none;top=0;left=0;bottom=0;right=0;points=[[0,0.5],[1,0.5]];portConstraint=eastwest;" vertex="1" parent="5ZjnstfDlBr8CtF7rMbR-2">
          <mxGeometry y="85" width="180" height="30" as="geometry" />
        </mxCell>
        <mxCell id="5ZjnstfDlBr8CtF7rMbR-10" value="" style="shape=partialRectangle;connectable=0;fillColor=none;top=0;left=0;bottom=0;right=0;editable=1;overflow=hidden;" vertex="1" parent="5ZjnstfDlBr8CtF7rMbR-9">
          <mxGeometry width="30" height="30" as="geometry" />
        </mxCell>
        <mxCell id="5ZjnstfDlBr8CtF7rMbR-11" value="Row 2" style="shape=partialRectangle;connectable=0;fillColor=none;top=0;left=0;bottom=0;right=0;align=left;spacingLeft=6;overflow=hidden;" vertex="1" parent="5ZjnstfDlBr8CtF7rMbR-9">
          <mxGeometry x="30" width="150" height="30" as="geometry" />
        </mxCell>
        <mxCell id="5ZjnstfDlBr8CtF7rMbR-12" value="" style="shape=partialRectangle;collapsible=0;dropTarget=0;pointerEvents=0;fillColor=none;top=0;left=0;bottom=0;right=0;points=[[0,0.5],[1,0.5]];portConstraint=eastwest;" vertex="1" parent="5ZjnstfDlBr8CtF7rMbR-2">
          <mxGeometry y="115" width="180" height="30" as="geometry" />
        </mxCell>
        <mxCell id="5ZjnstfDlBr8CtF7rMbR-13" value="" style="shape=partialRectangle;connectable=0;fillColor=none;top=0;left=0;bottom=0;right=0;editable=1;overflow=hidden;" vertex="1" parent="5ZjnstfDlBr8CtF7rMbR-12">
          <mxGeometry width="30" height="30" as="geometry" />
        </mxCell>
        <mxCell id="5ZjnstfDlBr8CtF7rMbR-14" value="Row 3" style="shape=partialRectangle;connectable=0;fillColor=none;top=0;left=0;bottom=0;right=0;align=left;spacingLeft=6;overflow=hidden;" vertex="1" parent="5ZjnstfDlBr8CtF7rMbR-12">
          <mxGeometry x="30" width="150" height="30" as="geometry" />
        </mxCell>
      </root>
    </mxGraphModel>
  </diagram>
</mxfile>
